<svg width="324" height="57" viewBox="0 0 324 57" fill="none" xmlns="http://www.w3.org/2000/svg">
  <path d="M58.87 28.726C60.434 29.066 61.6353 29.746 62.474 30.766C63.3353 31.7633 63.766 33.0553 63.766 34.642C63.766 36.682 63.0067 38.2573 61.488 39.368C59.992 40.456 57.7707 41 54.824 41H43.876V17.2H54.144C56.796 17.2 58.8473 17.7327 60.298 18.798C61.7713 19.8633 62.508 21.3707 62.508 23.32C62.508 24.6347 62.1793 25.7567 61.522 26.686C60.8873 27.5927 60.0033 28.2727 58.87 28.726ZM46.392 19.274V27.91H53.974C55.9007 27.91 57.3853 27.5473 58.428 26.822C59.4707 26.074 59.992 24.9973 59.992 23.592C59.992 22.1867 59.4707 21.1213 58.428 20.396C57.3853 19.648 55.9007 19.274 53.974 19.274H46.392ZM54.79 38.926C56.9207 38.926 58.53 38.5633 59.618 37.838C60.706 37.1127 61.25 35.9793 61.25 34.438C61.25 31.4687 59.0967 29.984 54.79 29.984H46.392V38.926H54.79ZM85.7608 41L80.3208 33.35C79.7088 33.418 79.0741 33.452 78.4168 33.452H72.0248V41H69.5088V17.2H78.4168C81.4541 17.2 83.8341 17.9253 85.5568 19.376C87.2795 20.8267 88.1408 22.8213 88.1408 25.36C88.1408 27.2187 87.6648 28.794 86.7128 30.086C85.7835 31.3553 84.4461 32.2733 82.7008 32.84L88.5148 41H85.7608ZM78.3488 31.31C80.7061 31.31 82.5081 30.7887 83.7548 29.746C85.0015 28.7033 85.6248 27.2413 85.6248 25.36C85.6248 23.4333 85.0015 21.96 83.7548 20.94C82.5081 19.8973 80.7061 19.376 78.3488 19.376H72.0248V31.31H78.3488ZM109.005 34.642H95.7451L92.8891 41H90.2711L101.151 17.2H103.633L114.513 41H111.861L109.005 34.642ZM108.087 32.602L102.375 19.818L96.6631 32.602H108.087ZM138.34 17.2V41H136.266L120.966 21.688V41H118.45V17.2H120.524L135.858 36.512V17.2H138.34ZM146.108 17.2H155.798C158.314 17.2 160.536 17.71 162.462 18.73C164.389 19.7273 165.885 21.1327 166.95 22.946C168.016 24.7367 168.548 26.788 168.548 29.1C168.548 31.412 168.016 33.4747 166.95 35.288C165.885 37.0787 164.389 38.484 162.462 39.504C160.536 40.5013 158.314 41 155.798 41H146.108V17.2ZM155.662 38.824C157.748 38.824 159.572 38.416 161.136 37.6C162.7 36.7613 163.913 35.6167 164.774 34.166C165.636 32.6927 166.066 31.004 166.066 29.1C166.066 27.196 165.636 25.5187 164.774 24.068C163.913 22.5947 162.7 21.45 161.136 20.634C159.572 19.7953 157.748 19.376 155.662 19.376H148.624V38.824H155.662ZM189.659 41.204C187.891 41.204 186.191 40.9207 184.559 40.354C182.949 39.7873 181.703 39.0393 180.819 38.11L181.805 36.172C182.666 37.0333 183.811 37.736 185.239 38.28C186.667 38.8013 188.14 39.062 189.659 39.062C191.789 39.062 193.387 38.6767 194.453 37.906C195.518 37.1127 196.051 36.0927 196.051 34.846C196.051 33.894 195.756 33.1347 195.167 32.568C194.6 32.0013 193.897 31.5707 193.059 31.276C192.22 30.9587 191.053 30.6187 189.557 30.256C187.766 29.8027 186.338 29.372 185.273 28.964C184.207 28.5333 183.289 27.8873 182.519 27.026C181.771 26.1647 181.397 24.9973 181.397 23.524C181.397 22.3227 181.714 21.2347 182.349 20.26C182.983 19.2627 183.958 18.4693 185.273 17.88C186.587 17.2907 188.219 16.996 190.169 16.996C191.529 16.996 192.855 17.1887 194.147 17.574C195.461 17.9367 196.595 18.4467 197.547 19.104L196.697 21.11C195.699 20.4527 194.634 19.9653 193.501 19.648C192.367 19.308 191.257 19.138 190.169 19.138C188.083 19.138 186.508 19.546 185.443 20.362C184.4 21.1553 183.879 22.1867 183.879 23.456C183.879 24.408 184.162 25.1787 184.729 25.768C185.318 26.3347 186.043 26.7767 186.905 27.094C187.789 27.3887 188.967 27.7173 190.441 28.08C192.186 28.5107 193.591 28.9413 194.657 29.372C195.745 29.78 196.663 30.4147 197.411 31.276C198.159 32.1147 198.533 33.2593 198.533 34.71C198.533 35.9113 198.204 37.0107 197.547 38.008C196.912 38.9827 195.926 39.7647 194.589 40.354C193.251 40.9207 191.608 41.204 189.659 41.204ZM208.307 19.376H199.943V17.2H219.187V19.376H210.823V41H208.307V19.376ZM231.2 32.772V41H228.718V32.772L219.198 17.2H221.884L230.044 30.562L238.204 17.2H240.72L231.2 32.772ZM244.124 17.2H246.64V38.824H259.968V41H244.124V17.2ZM280.976 38.824V41H264.146V17.2H280.466V19.376H266.662V27.842H278.97V29.984H266.662V38.824H280.976Z"/>
</svg>
