<svg width="174" height="57" viewBox="0 0 174 57" fill="none" xmlns="http://www.w3.org/2000/svg">
<path d="M43.876 17.2H46.392V38.824H59.72V41H43.876V17.2ZM73.8366 41.204C71.4793 41.204 69.3373 40.6827 67.4106 39.64C65.5066 38.5747 64.0106 37.124 62.9226 35.288C61.8573 33.452 61.3246 31.3893 61.3246 29.1C61.3246 26.8107 61.8573 24.748 62.9226 22.912C64.0106 21.076 65.5066 19.6367 67.4106 18.594C69.3373 17.5287 71.4793 16.996 73.8366 16.996C76.194 16.996 78.3133 17.5173 80.1946 18.56C82.0986 19.6027 83.5946 21.0533 84.6826 22.912C85.7706 24.748 86.3146 26.8107 86.3146 29.1C86.3146 31.3893 85.7706 33.4633 84.6826 35.322C83.5946 37.158 82.0986 38.5973 80.1946 39.64C78.3133 40.6827 76.194 41.204 73.8366 41.204ZM73.8366 38.96C75.718 38.96 77.418 38.5407 78.9366 37.702C80.4553 36.8407 81.6453 35.662 82.5066 34.166C83.368 32.6473 83.7986 30.9587 83.7986 29.1C83.7986 27.2413 83.368 25.564 82.5066 24.068C81.6453 22.5493 80.4553 21.3707 78.9366 20.532C77.418 19.6707 75.718 19.24 73.8366 19.24C71.9553 19.24 70.244 19.6707 68.7026 20.532C67.184 21.3707 65.9826 22.5493 65.0986 24.068C64.2373 25.564 63.8066 27.2413 63.8066 29.1C63.8066 30.9587 64.2373 32.6473 65.0986 34.166C65.9826 35.662 67.184 36.8407 68.7026 37.702C70.244 38.5407 71.9553 38.96 73.8366 38.96ZM111.012 17.2L100.472 41H97.9897L87.4497 17.2H90.1697L99.2817 37.872L108.462 17.2H111.012ZM131.296 38.824V41H114.466V17.2H130.786V19.376H116.982V27.842H129.29V29.984H116.982V38.824H131.296Z" fill="black"/>
<rect x="0.5" y="0.5" width="173" height="56" rx="28" stroke="#262626"/>
</svg>
