<svg width="345" height="57" viewBox="0 0 345 57" fill="none" xmlns="http://www.w3.org/2000/svg">
<path d="M76.55 17.2L68.526 41H65.874L58.904 20.702L51.9 41H49.282L41.258 17.2H43.842L50.71 37.668L57.816 17.2H60.162L67.166 37.77L74.136 17.2H76.55ZM97.9931 38.824V41H81.1631V17.2H97.4831V19.376H83.6791V27.842H95.9871V29.984H83.6791V38.824H97.9931ZM118.901 28.726C120.465 29.066 121.667 29.746 122.505 30.766C123.367 31.7633 123.797 33.0553 123.797 34.642C123.797 36.682 123.038 38.2573 121.519 39.368C120.023 40.456 117.802 41 114.855 41H103.907V17.2H114.175C116.827 17.2 118.879 17.7327 120.329 18.798C121.803 19.8633 122.539 21.3707 122.539 23.32C122.539 24.6347 122.211 25.7567 121.553 26.686C120.919 27.5927 120.035 28.2727 118.901 28.726ZM106.423 19.274V27.91H114.005C115.932 27.91 117.417 27.5473 118.459 26.822C119.502 26.074 120.023 24.9973 120.023 23.592C120.023 22.1867 119.502 21.1213 118.459 20.396C117.417 19.648 115.932 19.274 114.005 19.274H106.423ZM114.821 38.926C116.952 38.926 118.561 38.5633 119.649 37.838C120.737 37.1127 121.281 35.9793 121.281 34.438C121.281 31.4687 119.128 29.984 114.821 29.984H106.423V38.926H114.821ZM145.001 41.204C143.233 41.204 141.533 40.9207 139.901 40.354C138.291 39.7873 137.045 39.0393 136.161 38.11L137.147 36.172C138.008 37.0333 139.153 37.736 140.581 38.28C142.009 38.8013 143.482 39.062 145.001 39.062C147.131 39.062 148.729 38.6767 149.795 37.906C150.86 37.1127 151.393 36.0927 151.393 34.846C151.393 33.894 151.098 33.1347 150.509 32.568C149.942 32.0013 149.239 31.5707 148.401 31.276C147.562 30.9587 146.395 30.6187 144.899 30.256C143.108 29.8027 141.68 29.372 140.615 28.964C139.549 28.5333 138.631 27.8873 137.861 27.026C137.113 26.1647 136.739 24.9973 136.739 23.524C136.739 22.3227 137.056 21.2347 137.691 20.26C138.325 19.2627 139.3 18.4693 140.615 17.88C141.929 17.2907 143.561 16.996 145.511 16.996C146.871 16.996 148.197 17.1887 149.489 17.574C150.803 17.9367 151.937 18.4467 152.889 19.104L152.038 21.11C151.041 20.4527 149.976 19.9653 148.843 19.648C147.709 19.308 146.599 19.138 145.511 19.138C143.425 19.138 141.85 19.546 140.785 20.362C139.742 21.1553 139.221 22.1867 139.221 23.456C139.221 24.408 139.504 25.1787 140.071 25.768C140.66 26.3347 141.385 26.7767 142.247 27.094C143.131 27.3887 144.309 27.7173 145.783 28.08C147.528 28.5107 148.933 28.9413 149.999 29.372C151.087 29.78 152.005 30.4147 152.753 31.276C153.501 32.1147 153.875 33.2593 153.875 34.71C153.875 35.9113 153.546 37.0107 152.889 38.008C152.254 38.9827 151.268 39.7647 149.931 40.354C148.593 40.9207 146.95 41.204 145.001 41.204ZM176.186 38.824V41H159.356V17.2H175.676V19.376H161.872V27.842H174.18V29.984H161.872V38.824H176.186ZM198.353 41L192.913 33.35C192.301 33.418 191.666 33.452 191.009 33.452H184.617V41H182.101V17.2H191.009C194.046 17.2 196.426 17.9253 198.149 19.376C199.871 20.8267 200.733 22.8213 200.733 25.36C200.733 27.2187 200.257 28.794 199.305 30.086C198.375 31.3553 197.038 32.2733 195.293 32.84L201.107 41H198.353ZM190.941 31.31C193.298 31.31 195.1 30.7887 196.347 29.746C197.593 28.7033 198.217 27.2413 198.217 25.36C198.217 23.4333 197.593 21.96 196.347 20.94C195.1 19.8973 193.298 19.376 190.941 19.376H184.617V31.31H190.941ZM226.459 17.2L215.919 41H213.437L202.897 17.2H205.617L214.729 37.872L223.909 17.2H226.459ZM229.913 17.2H232.429V41H229.913V17.2ZM250.509 41.204C248.152 41.204 246.021 40.6827 244.117 39.64C242.236 38.5973 240.751 37.158 239.663 35.322C238.598 33.4633 238.065 31.3893 238.065 29.1C238.065 26.8107 238.598 24.748 239.663 22.912C240.751 21.0533 242.247 19.6027 244.151 18.56C246.055 17.5173 248.186 16.996 250.543 16.996C252.311 16.996 253.943 17.2907 255.439 17.88C256.935 18.4693 258.204 19.3307 259.247 20.464L257.649 22.062C255.79 20.1807 253.444 19.24 250.611 19.24C248.73 19.24 247.018 19.6707 245.477 20.532C243.936 21.3933 242.723 22.572 241.839 24.068C240.978 25.564 240.547 27.2413 240.547 29.1C240.547 30.9587 240.978 32.636 241.839 34.132C242.723 35.628 243.936 36.8067 245.477 37.668C247.018 38.5293 248.73 38.96 250.611 38.96C253.467 38.96 255.813 38.008 257.649 36.104L259.247 37.702C258.204 38.8353 256.924 39.708 255.405 40.32C253.909 40.9093 252.277 41.204 250.509 41.204ZM281.44 38.824V41H264.61V17.2H280.93V19.376H267.126V27.842H279.434V29.984H267.126V38.824H281.44ZM293.917 41.204C292.149 41.204 290.449 40.9207 288.817 40.354C287.207 39.7873 285.961 39.0393 285.077 38.11L286.063 36.172C286.924 37.0333 288.069 37.736 289.497 38.28C290.925 38.8013 292.398 39.062 293.917 39.062C296.047 39.062 297.645 38.6767 298.711 37.906C299.776 37.1127 300.309 36.0927 300.309 34.846C300.309 33.894 300.014 33.1347 299.425 32.568C298.858 32.0013 298.155 31.5707 297.317 31.276C296.478 30.9587 295.311 30.6187 293.815 30.256C292.024 29.8027 290.596 29.372 289.531 28.964C288.465 28.5333 287.547 27.8873 286.777 27.026C286.029 26.1647 285.655 24.9973 285.655 23.524C285.655 22.3227 285.972 21.2347 286.607 20.26C287.241 19.2627 288.216 18.4693 289.531 17.88C290.845 17.2907 292.477 16.996 294.427 16.996C295.787 16.996 297.113 17.1887 298.405 17.574C299.719 17.9367 300.853 18.4467 301.805 19.104L300.955 21.11C299.957 20.4527 298.892 19.9653 297.759 19.648C296.625 19.308 295.515 19.138 294.427 19.138C292.341 19.138 290.766 19.546 289.701 20.362C288.658 21.1553 288.137 22.1867 288.137 23.456C288.137 24.408 288.42 25.1787 288.987 25.768C289.576 26.3347 290.301 26.7767 291.163 27.094C292.047 27.3887 293.225 27.7173 294.699 28.08C296.444 28.5107 297.849 28.9413 298.915 29.372C300.003 29.78 300.921 30.4147 301.669 31.276C302.417 32.1147 302.791 33.2593 302.791 34.71C302.791 35.9113 302.462 37.0107 301.805 38.008C301.17 38.9827 300.184 39.7647 298.847 40.354C297.509 40.9207 295.866 41.204 293.917 41.204Z" fill="black"/>
<rect x="0.5" y="0.5" width="344" height="56" rx="28" stroke="#262626"/>
</svg>
