<svg width="490" height="49" viewBox="0 0 490 49" fill="none" xmlns="http://www.w3.org/2000/svg">
<path d="M55.9047 7.352H63.9567V9.948H59.0287V45.94H63.9567V48.536H55.9047V7.352ZM94.8041 40.264C91.7534 40.264 88.9961 39.5893 86.5321 38.24C84.0974 36.8907 82.1761 35.028 80.7681 32.652C79.3894 30.2467 78.7001 27.5627 78.7001 24.6C78.7001 21.6373 79.3894 18.968 80.7681 16.592C82.1761 14.1867 84.1121 12.3093 86.5761 10.96C89.0401 9.61067 91.7974 8.936 94.8481 8.936C97.1361 8.936 99.2481 9.31733 101.184 10.08C103.12 10.8427 104.763 11.9573 106.112 13.424L104.044 15.492C101.639 13.0573 98.6028 11.84 94.9361 11.84C92.5014 11.84 90.2868 12.3973 88.2921 13.512C86.2974 14.6267 84.7281 16.152 83.5841 18.088C82.4694 20.024 81.9121 22.1947 81.9121 24.6C81.9121 27.0053 82.4694 29.176 83.5841 31.112C84.7281 33.048 86.2974 34.5733 88.2921 35.688C90.2868 36.8027 92.5014 37.36 94.9361 37.36C98.6321 37.36 101.668 36.128 104.044 33.664L106.112 35.732C104.763 37.1987 103.105 38.328 101.14 39.12C99.2041 39.8827 97.0921 40.264 94.8041 40.264ZM125.873 40.264C122.822 40.264 120.05 39.5893 117.557 38.24C115.093 36.8613 113.157 34.984 111.749 32.608C110.37 30.232 109.681 27.5627 109.681 24.6C109.681 21.6373 110.37 18.968 111.749 16.592C113.157 14.216 115.093 12.3533 117.557 11.004C120.05 9.62533 122.822 8.936 125.873 8.936C128.923 8.936 131.666 9.61067 134.101 10.96C136.565 12.3093 138.501 14.1867 139.909 16.592C141.317 18.968 142.021 21.6373 142.021 24.6C142.021 27.5627 141.317 30.2467 139.909 32.652C138.501 35.028 136.565 36.8907 134.101 38.24C131.666 39.5893 128.923 40.264 125.873 40.264ZM125.873 37.36C128.307 37.36 130.507 36.8173 132.473 35.732C134.438 34.6173 135.978 33.092 137.093 31.156C138.207 29.1907 138.765 27.0053 138.765 24.6C138.765 22.1947 138.207 20.024 137.093 18.088C135.978 16.1227 134.438 14.5973 132.473 13.512C130.507 12.3973 128.307 11.84 125.873 11.84C123.438 11.84 121.223 12.3973 119.229 13.512C117.263 14.5973 115.709 16.1227 114.565 18.088C113.45 20.024 112.893 22.1947 112.893 24.6C112.893 27.0053 113.45 29.1907 114.565 31.156C115.709 33.092 117.263 34.6173 119.229 35.732C121.223 36.8173 123.438 37.36 125.873 37.36ZM160.847 9.2C164.777 9.2 167.857 10.1387 170.087 12.016C172.316 13.8933 173.431 16.4747 173.431 19.76C173.431 23.0453 172.316 25.6267 170.087 27.504C167.857 29.352 164.777 30.276 160.847 30.276H152.575V40H149.319V9.2H160.847ZM160.759 27.416C163.809 27.416 166.141 26.756 167.755 25.436C169.368 24.0867 170.175 22.1947 170.175 19.76C170.175 17.2667 169.368 15.36 167.755 14.04C166.141 12.6907 163.809 12.016 160.759 12.016H152.575V27.416H160.759ZM191.031 29.352V40H187.819V29.352L175.499 9.2H178.975L189.535 26.492L200.095 9.2H203.351L191.031 29.352ZM249.868 9.2L239.484 40H236.052L227.032 13.732L217.968 40H214.58L204.196 9.2H207.54L216.428 35.688L225.624 9.2H228.66L237.724 35.82L246.744 9.2H249.868ZM276.87 40L269.83 30.1C269.038 30.188 268.217 30.232 267.366 30.232H259.094V40H255.838V9.2H267.366C271.297 9.2 274.377 10.1387 276.606 12.016C278.836 13.8933 279.95 16.4747 279.95 19.76C279.95 22.1653 279.334 24.204 278.102 25.876C276.9 27.5187 275.169 28.7067 272.91 29.44L280.434 40H276.87ZM267.278 27.46C270.329 27.46 272.661 26.7853 274.274 25.436C275.888 24.0867 276.694 22.1947 276.694 19.76C276.694 17.2667 275.888 15.36 274.274 14.04C272.661 12.6907 270.329 12.016 267.278 12.016H259.094V27.46H267.278ZM287.635 9.2H290.891V40H287.635V9.2ZM306.896 12.016H296.072V9.2H320.976V12.016H310.152V40H306.896V12.016ZM326.178 9.2H329.434V40H326.178V9.2ZM365.195 9.2V40H362.511L342.711 15.008V40H339.455V9.2H342.139L361.983 34.192V9.2H365.195ZM396.94 24.6H400.064V36.348C398.627 37.6093 396.926 38.5773 394.96 39.252C392.995 39.9267 390.927 40.264 388.756 40.264C385.676 40.264 382.904 39.5893 380.44 38.24C377.976 36.8907 376.04 35.028 374.632 32.652C373.224 30.2467 372.52 27.5627 372.52 24.6C372.52 21.6373 373.224 18.968 374.632 16.592C376.04 14.1867 377.976 12.3093 380.44 10.96C382.904 9.61067 385.691 8.936 388.8 8.936C391.147 8.936 393.303 9.31733 395.268 10.08C397.234 10.8133 398.891 11.9133 400.24 13.38L398.216 15.448C395.782 13.0427 392.687 11.84 388.932 11.84C386.439 11.84 384.18 12.3973 382.156 13.512C380.162 14.5973 378.592 16.1227 377.448 18.088C376.304 20.024 375.732 22.1947 375.732 24.6C375.732 27.0053 376.304 29.176 377.448 31.112C378.592 33.048 380.162 34.5733 382.156 35.688C384.151 36.8027 386.395 37.36 388.888 37.36C392.056 37.36 394.74 36.568 396.94 34.984V24.6ZM416.703 48.536V45.94H421.631V9.948H416.703V7.352H424.755V48.536H416.703ZM434.451 21.476C433.806 21.476 433.248 21.2413 432.779 20.772C432.339 20.3027 432.119 19.7307 432.119 19.056C432.119 18.3813 432.339 17.824 432.779 17.384C433.248 16.9147 433.806 16.68 434.451 16.68C435.096 16.68 435.654 16.9147 436.123 17.384C436.592 17.824 436.827 18.3813 436.827 19.056C436.827 19.7307 436.592 20.3027 436.123 20.772C435.654 21.2413 435.096 21.476 434.451 21.476ZM434.495 35.424C435.17 35.424 435.727 35.6587 436.167 36.128C436.607 36.568 436.827 37.1253 436.827 37.8C436.827 38.152 436.768 38.5333 436.651 38.944C436.563 39.3547 436.416 39.824 436.211 40.352L434.363 46.424H432.251L433.747 40.044C433.278 39.8973 432.896 39.6333 432.603 39.252C432.31 38.8413 432.163 38.3573 432.163 37.8C432.163 37.1253 432.383 36.568 432.823 36.128C433.263 35.6587 433.82 35.424 434.495 35.424Z" fill="#262626"/>
</svg>
