<svg width="450" height="49" viewBox="0 0 450 49" fill="none" xmlns="http://www.w3.org/2000/svg">
<path d="M55.0258 7.352H63.0778V9.948H58.1498V45.94H63.0778V48.536H55.0258V7.352ZM92.0772 9.2C96.0079 9.2 99.0879 10.1387 101.317 12.016C103.547 13.8933 104.661 16.4747 104.661 19.76C104.661 23.0453 103.547 25.6267 101.317 27.504C99.0879 29.352 96.0079 30.276 92.0772 30.276H83.8052V40H80.5492V9.2H92.0772ZM91.9892 27.416C95.0399 27.416 97.3719 26.756 98.9852 25.436C100.599 24.0867 101.405 22.1947 101.405 19.76C101.405 17.2667 100.599 15.36 98.9852 14.04C97.3719 12.6907 95.0399 12.016 91.9892 12.016H83.8052V27.416H91.9892ZM132.734 40L125.694 30.1C124.902 30.188 124.08 30.232 123.23 30.232H114.958V40H111.702V9.2H123.23C127.16 9.2 130.24 10.1387 132.47 12.016C134.699 13.8933 135.814 16.4747 135.814 19.76C135.814 22.1653 135.198 24.204 133.966 25.876C132.763 27.5187 131.032 28.7067 128.774 29.44L136.298 40H132.734ZM123.142 27.46C126.192 27.46 128.524 26.7853 130.138 25.436C131.751 24.0867 132.558 22.1947 132.558 19.76C132.558 17.2667 131.751 15.36 130.138 14.04C128.524 12.6907 126.192 12.016 123.142 12.016H114.958V27.46H123.142ZM156.962 40.264C153.912 40.264 151.14 39.5893 148.646 38.24C146.182 36.8613 144.246 34.984 142.838 32.608C141.46 30.232 140.77 27.5627 140.77 24.6C140.77 21.6373 141.46 18.968 142.838 16.592C144.246 14.216 146.182 12.3533 148.646 11.004C151.14 9.62533 153.912 8.936 156.962 8.936C160.013 8.936 162.756 9.61067 165.19 10.96C167.654 12.3093 169.59 14.1867 170.998 16.592C172.406 18.968 173.11 21.6373 173.11 24.6C173.11 27.5627 172.406 30.2467 170.998 32.652C169.59 35.028 167.654 36.8907 165.19 38.24C162.756 39.5893 160.013 40.264 156.962 40.264ZM156.962 37.36C159.397 37.36 161.597 36.8173 163.562 35.732C165.528 34.6173 167.068 33.092 168.182 31.156C169.297 29.1907 169.854 27.0053 169.854 24.6C169.854 22.1947 169.297 20.024 168.182 18.088C167.068 16.1227 165.528 14.5973 163.562 13.512C161.597 12.3973 159.397 11.84 156.962 11.84C154.528 11.84 152.313 12.3973 150.318 13.512C148.353 14.5973 146.798 16.1227 145.654 18.088C144.54 20.024 143.982 22.1947 143.982 24.6C143.982 27.0053 144.54 29.1907 145.654 31.156C146.798 33.092 148.353 34.6173 150.318 35.732C152.313 36.8173 154.528 37.36 156.962 37.36ZM212.397 9.2V40H209.273V15.36L197.173 36.084H195.633L183.533 15.492V40H180.409V9.2H183.093L196.469 32.036L209.713 9.2H212.397ZM235.896 40.264C232.845 40.264 230.073 39.5893 227.58 38.24C225.116 36.8613 223.18 34.984 221.772 32.608C220.393 30.232 219.704 27.5627 219.704 24.6C219.704 21.6373 220.393 18.968 221.772 16.592C223.18 14.216 225.116 12.3533 227.58 11.004C230.073 9.62533 232.845 8.936 235.896 8.936C238.947 8.936 241.689 9.61067 244.124 10.96C246.588 12.3093 248.524 14.1867 249.932 16.592C251.34 18.968 252.044 21.6373 252.044 24.6C252.044 27.5627 251.34 30.2467 249.932 32.652C248.524 35.028 246.588 36.8907 244.124 38.24C241.689 39.5893 238.947 40.264 235.896 40.264ZM235.896 37.36C238.331 37.36 240.531 36.8173 242.496 35.732C244.461 34.6173 246.001 33.092 247.116 31.156C248.231 29.1907 248.788 27.0053 248.788 24.6C248.788 22.1947 248.231 20.024 247.116 18.088C246.001 16.1227 244.461 14.5973 242.496 13.512C240.531 12.3973 238.331 11.84 235.896 11.84C233.461 11.84 231.247 12.3973 229.252 13.512C227.287 14.5973 225.732 16.1227 224.588 18.088C223.473 20.024 222.916 22.1947 222.916 24.6C222.916 27.0053 223.473 29.1907 224.588 31.156C225.732 33.092 227.287 34.6173 229.252 35.732C231.247 36.8173 233.461 37.36 235.896 37.36ZM264.896 12.016H254.072V9.2H278.976V12.016H268.152V40H264.896V12.016ZM284.178 9.2H287.434V40H284.178V9.2ZM310.919 40.264C307.869 40.264 305.097 39.5893 302.603 38.24C300.139 36.8613 298.203 34.984 296.795 32.608C295.417 30.232 294.727 27.5627 294.727 24.6C294.727 21.6373 295.417 18.968 296.795 16.592C298.203 14.216 300.139 12.3533 302.603 11.004C305.097 9.62533 307.869 8.936 310.919 8.936C313.97 8.936 316.713 9.61067 319.147 10.96C321.611 12.3093 323.547 14.1867 324.955 16.592C326.363 18.968 327.067 21.6373 327.067 24.6C327.067 27.5627 326.363 30.2467 324.955 32.652C323.547 35.028 321.611 36.8907 319.147 38.24C316.713 39.5893 313.97 40.264 310.919 40.264ZM310.919 37.36C313.354 37.36 315.554 36.8173 317.519 35.732C319.485 34.6173 321.025 33.092 322.139 31.156C323.254 29.1907 323.811 27.0053 323.811 24.6C323.811 22.1947 323.254 20.024 322.139 18.088C321.025 16.1227 319.485 14.5973 317.519 13.512C315.554 12.3973 313.354 11.84 310.919 11.84C308.485 11.84 306.27 12.3973 304.275 13.512C302.31 14.5973 300.755 16.1227 299.611 18.088C298.497 20.024 297.939 22.1947 297.939 24.6C297.939 27.0053 298.497 29.1907 299.611 31.156C300.755 33.092 302.31 34.6173 304.275 35.732C306.27 36.8173 308.485 37.36 310.919 37.36ZM360.106 9.2V40H357.422L337.622 15.008V40H334.366V9.2H337.05L356.894 34.192V9.2H360.106ZM377.582 48.536V45.94H382.51V9.948H377.582V7.352H385.634V48.536H377.582ZM395.33 21.476C394.685 21.476 394.127 21.2413 393.658 20.772C393.218 20.3027 392.998 19.7307 392.998 19.056C392.998 18.3813 393.218 17.824 393.658 17.384C394.127 16.9147 394.685 16.68 395.33 16.68C395.975 16.68 396.533 16.9147 397.002 17.384C397.471 17.824 397.706 18.3813 397.706 19.056C397.706 19.7307 397.471 20.3027 397.002 20.772C396.533 21.2413 395.975 21.476 395.33 21.476ZM395.374 35.424C396.049 35.424 396.606 35.6587 397.046 36.128C397.486 36.568 397.706 37.1253 397.706 37.8C397.706 38.152 397.647 38.5333 397.53 38.944C397.442 39.3547 397.295 39.824 397.09 40.352L395.242 46.424H393.13L394.626 40.044C394.157 39.8973 393.775 39.6333 393.482 39.252C393.189 38.8413 393.042 38.3573 393.042 37.8C393.042 37.1253 393.262 36.568 393.702 36.128C394.142 35.6587 394.699 35.424 395.374 35.424Z" fill="#262626"/>
</svg>
