<svg width="500" height="49" viewBox="0 0 500 49" fill="none" xmlns="http://www.w3.org/2000/svg">
<path d="M56.5004 7.352H64.5524V9.948H59.6244V45.94H64.5524V48.536H56.5004V7.352ZM94.4318 40.264C90.4425 40.264 87.3331 39.12 85.1038 36.832C82.8745 34.544 81.7598 31.2147 81.7598 26.844V9.2H85.0158V26.712C85.0158 30.2907 85.8225 32.96 87.4358 34.72C89.0491 36.48 91.3811 37.36 94.4318 37.36C97.5118 37.36 99.8585 36.48 101.472 34.72C103.085 32.96 103.892 30.2907 103.892 26.712V9.2H107.06V26.844C107.06 31.2147 105.945 34.544 103.716 36.832C101.516 39.12 98.4211 40.264 94.4318 40.264ZM116.871 9.2H120.127V40H116.871V9.2ZM150.068 2.952H152.928L138.408 44.4H135.548L150.068 2.952ZM180.326 40.264C176.337 40.264 173.228 39.12 170.998 36.832C168.769 34.544 167.654 31.2147 167.654 26.844V9.2H170.91V26.712C170.91 30.2907 171.717 32.96 173.33 34.72C174.944 36.48 177.276 37.36 180.326 37.36C183.406 37.36 185.753 36.48 187.366 34.72C188.98 32.96 189.786 30.2907 189.786 26.712V9.2H192.954V26.844C192.954 31.2147 191.84 34.544 189.61 36.832C187.41 39.12 184.316 40.264 180.326 40.264ZM221.652 40L211.708 26.448L201.808 40H198.068L209.772 24.16L198.816 9.2H202.556L211.84 21.784L221.08 9.2H224.6L213.688 24.072L225.436 40H221.652ZM242.727 9.2H255.267C258.523 9.2 261.398 9.86 263.891 11.18C266.384 12.4707 268.32 14.2893 269.699 16.636C271.078 18.9533 271.767 21.608 271.767 24.6C271.767 27.592 271.078 30.2613 269.699 32.608C268.32 34.9253 266.384 36.744 263.891 38.064C261.398 39.3547 258.523 40 255.267 40H242.727V9.2ZM255.091 37.184C257.79 37.184 260.151 36.656 262.175 35.6C264.199 34.5147 265.768 33.0333 266.883 31.156C267.998 29.2493 268.555 27.064 268.555 24.6C268.555 22.136 267.998 19.9653 266.883 18.088C265.768 16.1813 264.199 14.7 262.175 13.644C260.151 12.5587 257.79 12.016 255.091 12.016H245.983V37.184H255.091ZM300.859 37.184V40H279.079V9.2H300.199V12.016H282.335V22.972H298.263V25.744H282.335V37.184H300.859ZM317.004 40.264C314.716 40.264 312.516 39.8973 310.404 39.164C308.321 38.4307 306.708 37.4627 305.564 36.26L306.84 33.752C307.955 34.8667 309.436 35.776 311.284 36.48C313.132 37.1547 315.039 37.492 317.004 37.492C319.761 37.492 321.829 36.9933 323.208 35.996C324.587 34.9693 325.276 33.6493 325.276 32.036C325.276 30.804 324.895 29.8213 324.132 29.088C323.399 28.3547 322.489 27.7973 321.404 27.416C320.319 27.0053 318.808 26.5653 316.872 26.096C314.555 25.5093 312.707 24.952 311.328 24.424C309.949 23.8667 308.761 23.0307 307.764 21.916C306.796 20.8013 306.312 19.2907 306.312 17.384C306.312 15.8293 306.723 14.4213 307.544 13.16C308.365 11.8693 309.627 10.8427 311.328 10.08C313.029 9.31733 315.141 8.936 317.664 8.936C319.424 8.936 321.14 9.18533 322.812 9.684C324.513 10.1533 325.98 10.8133 327.212 11.664L326.112 14.26C324.821 13.4093 323.443 12.7787 321.976 12.368C320.509 11.928 319.072 11.708 317.664 11.708C314.965 11.708 312.927 12.236 311.548 13.292C310.199 14.3187 309.524 15.6533 309.524 17.296C309.524 18.528 309.891 19.5253 310.624 20.288C311.387 21.0213 312.325 21.5933 313.44 22.004C314.584 22.3853 316.109 22.8107 318.016 23.28C320.275 23.8373 322.093 24.3947 323.472 24.952C324.88 25.48 326.068 26.3013 327.036 27.416C328.004 28.5013 328.488 29.9827 328.488 31.86C328.488 33.4147 328.063 34.8373 327.212 36.128C326.391 37.3893 325.115 38.4013 323.384 39.164C321.653 39.8973 319.527 40.264 317.004 40.264ZM335.582 9.2H338.838V40H335.582V9.2ZM370.552 24.6H373.676V36.348C372.238 37.6093 370.537 38.5773 368.572 39.252C366.606 39.9267 364.538 40.264 362.368 40.264C359.288 40.264 356.516 39.5893 354.052 38.24C351.588 36.8907 349.652 35.028 348.244 32.652C346.836 30.2467 346.132 27.5627 346.132 24.6C346.132 21.6373 346.836 18.968 348.244 16.592C349.652 14.1867 351.588 12.3093 354.052 10.96C356.516 9.61067 359.302 8.936 362.412 8.936C364.758 8.936 366.914 9.31733 368.88 10.08C370.845 10.8133 372.502 11.9133 373.852 13.38L371.828 15.448C369.393 13.0427 366.298 11.84 362.544 11.84C360.05 11.84 357.792 12.3973 355.768 13.512C353.773 14.5973 352.204 16.1227 351.06 18.088C349.916 20.024 349.344 22.1947 349.344 24.6C349.344 27.0053 349.916 29.176 351.06 31.112C352.204 33.048 353.773 34.5733 355.768 35.688C357.762 36.8027 360.006 37.36 362.5 37.36C365.668 37.36 368.352 36.568 370.552 34.984V24.6ZM408.631 9.2V40H405.947L386.147 15.008V40H382.891V9.2H385.575L405.419 34.192V9.2H408.631ZM426.108 48.536V45.94H431.036V9.948H426.108V7.352H434.16V48.536H426.108ZM443.855 21.476C443.21 21.476 442.653 21.2413 442.183 20.772C441.743 20.3027 441.523 19.7307 441.523 19.056C441.523 18.3813 441.743 17.824 442.183 17.384C442.653 16.9147 443.21 16.68 443.855 16.68C444.501 16.68 445.058 16.9147 445.527 17.384C445.997 17.824 446.231 18.3813 446.231 19.056C446.231 19.7307 445.997 20.3027 445.527 20.772C445.058 21.2413 444.501 21.476 443.855 21.476ZM443.899 35.424C444.574 35.424 445.131 35.6587 445.571 36.128C446.011 36.568 446.231 37.1253 446.231 37.8C446.231 38.152 446.173 38.5333 446.055 38.944C445.967 39.3547 445.821 39.824 445.615 40.352L443.767 46.424H441.655L443.151 40.044C442.682 39.8973 442.301 39.6333 442.007 39.252C441.714 38.8413 441.567 38.3573 441.567 37.8C441.567 37.1253 441.787 36.568 442.227 36.128C442.667 35.6587 443.225 35.424 443.899 35.424Z" fill="#262626"/>
</svg>
