<svg width="405" height="49" viewBox="0 0 405 49" fill="none" xmlns="http://www.w3.org/2000/svg">
<path d="M55.0844 7.352H63.1364V9.948H58.2084V45.94H63.1364V48.536H55.0844V7.352ZM122.892 9.2L112.508 40H109.076L100.056 13.732L90.9918 40H87.6038L77.2198 9.2H80.5638L89.4518 35.688L98.6478 9.2H101.684L110.748 35.82L119.768 9.2H122.892ZM150.642 37.184V40H128.862V9.2H149.982V12.016H132.118V22.972H148.046V25.744H132.118V37.184H150.642ZM177.699 24.116C179.723 24.556 181.278 25.436 182.363 26.756C183.478 28.0467 184.035 29.7187 184.035 31.772C184.035 34.412 183.053 36.4507 181.087 37.888C179.151 39.296 176.277 40 172.463 40H158.295V9.2H171.583C175.015 9.2 177.67 9.88933 179.547 11.268C181.454 12.6467 182.407 14.5973 182.407 17.12C182.407 18.8213 181.982 20.2733 181.131 21.476C180.31 22.6493 179.166 23.5293 177.699 24.116ZM161.551 11.884V23.06H171.363C173.857 23.06 175.778 22.5907 177.127 21.652C178.477 20.684 179.151 19.2907 179.151 17.472C179.151 15.6533 178.477 14.2747 177.127 13.336C175.778 12.368 173.857 11.884 171.363 11.884H161.551ZM172.419 37.316C175.177 37.316 177.259 36.8467 178.667 35.908C180.075 34.9693 180.779 33.5027 180.779 31.508C180.779 27.6653 177.993 25.744 172.419 25.744H161.551V37.316H172.419ZM211.475 40.264C209.187 40.264 206.987 39.8973 204.875 39.164C202.792 38.4307 201.179 37.4627 200.035 36.26L201.311 33.752C202.425 34.8667 203.907 35.776 205.755 36.48C207.603 37.1547 209.509 37.492 211.475 37.492C214.232 37.492 216.3 36.9933 217.679 35.996C219.057 34.9693 219.747 33.6493 219.747 32.036C219.747 30.804 219.365 29.8213 218.603 29.088C217.869 28.3547 216.96 27.7973 215.875 27.416C214.789 27.0053 213.279 26.5653 211.343 26.096C209.025 25.5093 207.177 24.952 205.799 24.424C204.42 23.8667 203.232 23.0307 202.235 21.916C201.267 20.8013 200.783 19.2907 200.783 17.384C200.783 15.8293 201.193 14.4213 202.015 13.16C202.836 11.8693 204.097 10.8427 205.799 10.08C207.5 9.31733 209.612 8.936 212.135 8.936C213.895 8.936 215.611 9.18533 217.283 9.684C218.984 10.1533 220.451 10.8133 221.683 11.664L220.583 14.26C219.292 13.4093 217.913 12.7787 216.447 12.368C214.98 11.928 213.543 11.708 212.135 11.708C209.436 11.708 207.397 12.236 206.019 13.292C204.669 14.3187 203.995 15.6533 203.995 17.296C203.995 18.528 204.361 19.5253 205.095 20.288C205.857 21.0213 206.796 21.5933 207.911 22.004C209.055 22.3853 210.58 22.8107 212.487 23.28C214.745 23.8373 216.564 24.3947 217.943 24.952C219.351 25.48 220.539 26.3013 221.507 27.416C222.475 28.5013 222.959 29.9827 222.959 31.86C222.959 33.4147 222.533 34.8373 221.683 36.128C220.861 37.3893 219.585 38.4013 217.855 39.164C216.124 39.8973 213.997 40.264 211.475 40.264ZM230.053 9.2H233.309V40H230.053V9.2ZM249.314 12.016H238.49V9.2H263.394V12.016H252.57V40H249.314V12.016ZM290.376 37.184V40H268.596V9.2H289.716V12.016H271.852V22.972H287.78V25.744H271.852V37.184H290.376ZM306.522 40.264C304.234 40.264 302.034 39.8973 299.922 39.164C297.839 38.4307 296.226 37.4627 295.082 36.26L296.358 33.752C297.472 34.8667 298.954 35.776 300.802 36.48C302.65 37.1547 304.556 37.492 306.522 37.492C309.279 37.492 311.347 36.9933 312.726 35.996C314.104 34.9693 314.794 33.6493 314.794 32.036C314.794 30.804 314.412 29.8213 313.65 29.088C312.916 28.3547 312.007 27.7973 310.922 27.416C309.836 27.0053 308.326 26.5653 306.39 26.096C304.072 25.5093 302.224 24.952 300.846 24.424C299.467 23.8667 298.279 23.0307 297.282 21.916C296.314 20.8013 295.83 19.2907 295.83 17.384C295.83 15.8293 296.24 14.4213 297.062 13.16C297.883 11.8693 299.144 10.8427 300.846 10.08C302.547 9.31733 304.659 8.936 307.182 8.936C308.942 8.936 310.658 9.18533 312.33 9.684C314.031 10.1533 315.498 10.8133 316.73 11.664L315.63 14.26C314.339 13.4093 312.96 12.7787 311.494 12.368C310.027 11.928 308.59 11.708 307.182 11.708C304.483 11.708 302.444 12.236 301.066 13.292C299.716 14.3187 299.042 15.6533 299.042 17.296C299.042 18.528 299.408 19.5253 300.142 20.288C300.904 21.0213 301.843 21.5933 302.958 22.004C304.102 22.3853 305.627 22.8107 307.534 23.28C309.792 23.8373 311.611 24.3947 312.99 24.952C314.398 25.48 315.586 26.3013 316.554 27.416C317.522 28.5013 318.006 29.9827 318.006 31.86C318.006 33.4147 317.58 34.8373 316.73 36.128C315.908 37.3893 314.632 38.4013 312.902 39.164C311.171 39.8973 309.044 40.264 306.522 40.264ZM332.524 48.536V45.94H337.452V9.948H332.524V7.352H340.576V48.536H332.524ZM350.271 21.476C349.626 21.476 349.069 21.2413 348.599 20.772C348.159 20.3027 347.939 19.7307 347.939 19.056C347.939 18.3813 348.159 17.824 348.599 17.384C349.069 16.9147 349.626 16.68 350.271 16.68C350.917 16.68 351.474 16.9147 351.943 17.384C352.413 17.824 352.647 18.3813 352.647 19.056C352.647 19.7307 352.413 20.3027 351.943 20.772C351.474 21.2413 350.917 21.476 350.271 21.476ZM350.315 35.424C350.99 35.424 351.547 35.6587 351.987 36.128C352.427 36.568 352.647 37.1253 352.647 37.8C352.647 38.152 352.589 38.5333 352.471 38.944C352.383 39.3547 352.237 39.824 352.031 40.352L350.183 46.424H348.071L349.567 40.044C349.098 39.8973 348.717 39.6333 348.423 39.252C348.13 38.8413 347.983 38.3573 347.983 37.8C347.983 37.1253 348.203 36.568 348.643 36.128C349.083 35.6587 349.641 35.424 350.315 35.424Z" fill="#262626"/>
</svg>
