<svg width="480" height="480" viewBox="0 0 480 480" fill="none" xmlns="http://www.w3.org/2000/svg">
<circle cx="240" cy="240" r="239.5" fill="#BD0000" stroke="#1B1B1B"/>
<path d="M131.62 169V156.4H133.51L137.65 164.77H138.82L142.96 156.4H144.85V169H143.68V157.66L143.698 157.48H143.68L139.54 165.85H136.93L132.79 157.48L132.772 157.498L132.79 157.66V169H131.62ZM146.921 169L150.251 156.4H154.751L158.081 169H156.911L155.831 164.86H149.171L148.091 169H146.921ZM149.441 163.78H155.561L153.851 157.48H151.151L149.441 163.78ZM160.932 167.47C159.696 166.21 159.078 164.62 159.078 162.7C159.078 160.78 159.696 159.19 160.932 157.93C162.168 156.67 163.71 156.04 165.558 156.04C167.574 156.04 169.212 156.79 170.472 158.29C171.012 158.95 171.414 159.7 171.678 160.54H170.508C170.268 159.904 169.926 159.334 169.482 158.83C168.462 157.69 167.154 157.12 165.558 157.12C164.01 157.12 162.738 157.636 161.742 158.668C160.746 159.7 160.248 161.044 160.248 162.7C160.248 164.356 160.746 165.7 161.742 166.732C162.738 167.764 164.01 168.28 165.558 168.28C167.19 168.28 168.522 167.668 169.554 166.444C169.998 165.916 170.346 165.298 170.598 164.59H171.768C171.504 165.478 171.09 166.276 170.526 166.984C169.278 168.568 167.622 169.36 165.558 169.36C163.71 169.36 162.168 168.73 160.932 167.47ZM172.754 157.48V156.4H182.924V157.48H178.424V169H177.254V157.48H172.754ZM184.724 169V156.4H193.274V157.48H185.894V162.07H191.924V163.15H185.894V167.92H193.274V169H184.724ZM195.71 169V156.4H200.84C202.208 156.4 203.3 156.778 204.116 157.534C204.932 158.29 205.34 159.262 205.34 160.45C205.34 161.638 204.932 162.61 204.116 163.366C203.3 164.122 202.208 164.5 200.84 164.5H196.88V169H195.71ZM196.88 163.42H200.84C201.908 163.42 202.73 163.156 203.306 162.628C203.882 162.088 204.17 161.362 204.17 160.45C204.17 159.538 203.882 158.818 203.306 158.29C202.73 157.75 201.908 157.48 200.84 157.48H196.88V163.42ZM207.141 164.5V163.42H213.621V164.5H207.141ZM216.329 169V156.4H217.499V162.07H220.289L224.339 156.4H225.779L221.369 162.52L225.959 169H224.519L220.379 163.15H217.499V169H216.329ZM226.585 169L229.825 156.4H234.235L237.475 169H236.305L233.335 157.48H230.725L227.755 169H226.585ZM238.38 169L241.71 156.4H246.21L249.54 169H248.37L247.29 164.86H240.63L239.55 169H238.38ZM240.9 163.78H247.02L245.31 157.48H242.61L240.9 163.78ZM252.391 167.47C251.155 166.21 250.537 164.62 250.537 162.7C250.537 160.78 251.155 159.19 252.391 157.93C253.627 156.67 255.169 156.04 257.017 156.04C259.033 156.04 260.671 156.79 261.931 158.29C262.471 158.95 262.873 159.7 263.137 160.54H261.967C261.727 159.904 261.385 159.334 260.941 158.83C259.921 157.69 258.613 157.12 257.017 157.12C255.469 157.12 254.197 157.636 253.201 158.668C252.205 159.7 251.707 161.044 251.707 162.7C251.707 164.356 252.205 165.7 253.201 166.732C254.197 167.764 255.469 168.28 257.017 168.28C258.649 168.28 259.981 167.668 261.013 166.444C261.457 165.916 261.805 165.298 262.057 164.59H263.227C262.963 165.478 262.549 166.276 261.985 166.984C260.737 168.568 259.081 169.36 257.017 169.36C255.169 169.36 253.627 168.73 252.391 167.47ZM266.787 167.47C265.551 166.21 264.933 164.62 264.933 162.7C264.933 160.78 265.551 159.19 266.787 157.93C268.023 156.67 269.565 156.04 271.413 156.04C273.429 156.04 275.067 156.79 276.327 158.29C276.867 158.95 277.269 159.7 277.533 160.54H276.363C276.123 159.904 275.781 159.334 275.337 158.83C274.317 157.69 273.009 157.12 271.413 157.12C269.865 157.12 268.593 157.636 267.597 158.668C266.601 159.7 266.103 161.044 266.103 162.7C266.103 164.356 266.601 165.7 267.597 166.732C268.593 167.764 269.865 168.28 271.413 168.28C273.045 168.28 274.377 167.668 275.409 166.444C275.853 165.916 276.201 165.298 276.453 164.59H277.623C277.359 165.478 276.945 166.276 276.381 166.984C275.133 168.568 273.477 169.36 271.413 169.36C269.565 169.36 268.023 168.73 266.787 167.47ZM285.095 169V156.4H294.725V169H293.555V157.48H286.265V169H285.095ZM299.096 167.47C297.86 166.21 297.242 164.62 297.242 162.7C297.242 160.78 297.86 159.19 299.096 157.93C300.332 156.67 301.874 156.04 303.722 156.04C305.57 156.04 307.112 156.67 308.348 157.93C309.584 159.19 310.202 160.78 310.202 162.7C310.202 164.62 309.584 166.21 308.348 167.47C307.112 168.73 305.57 169.36 303.722 169.36C301.874 169.36 300.332 168.73 299.096 167.47ZM299.906 158.668C298.91 159.7 298.412 161.044 298.412 162.7C298.412 164.356 298.91 165.7 299.906 166.732C300.902 167.764 302.174 168.28 303.722 168.28C305.27 168.28 306.542 167.764 307.538 166.732C308.534 165.7 309.032 164.356 309.032 162.7C309.032 161.044 308.534 159.7 307.538 158.668C306.542 157.636 305.27 157.12 303.722 157.12C302.174 157.12 300.902 157.636 299.906 158.668ZM131.62 191V178.4H141.25V191H140.08V179.48H132.79V191H131.62ZM144.487 191V178.4H153.037V179.48H145.657V184.07H151.687V185.15H145.657V189.92H153.037V191H144.487ZM155.474 191V178.4H160.604C161.972 178.4 163.064 178.778 163.88 179.534C164.696 180.29 165.104 181.262 165.104 182.45C165.104 183.638 164.696 184.61 163.88 185.366C163.064 186.122 161.972 186.5 160.604 186.5H156.644V191H155.474ZM156.644 185.42H160.604C161.672 185.42 162.494 185.156 163.07 184.628C163.646 184.088 163.934 183.362 163.934 182.45C163.934 181.538 163.646 180.818 163.07 180.29C162.494 179.75 161.672 179.48 160.604 179.48H156.644V185.42ZM167.444 191V178.4H168.614V184.07H171.404L175.454 178.4H176.894L172.484 184.52L177.074 191H175.634L171.494 185.15H168.614V191H167.444ZM177.52 178.4H178.78L181.39 185.15H184L186.7 178.4H187.96L182.92 191H181.66L183.55 186.23H180.58L177.52 178.4ZM188.223 179.48V178.4H198.393V179.48H193.893V191H192.723V179.48H188.223ZM198.302 191L201.632 178.4H206.132L209.462 191H208.292L207.212 186.86H200.552L199.472 191H198.302ZM200.822 185.78H206.942L205.232 179.48H202.532L200.822 185.78ZM211.53 191V178.4H212.7V184.07H219.99V178.4H221.16V191H219.99V185.15H212.7V191H211.53ZM224.397 191V178.4H225.567V184.07H232.857V178.4H234.027V191H232.857V185.15H225.567V191H224.397ZM238.399 189.47C237.163 188.21 236.545 186.62 236.545 184.7C236.545 182.78 237.163 181.19 238.399 179.93C239.635 178.67 241.177 178.04 243.025 178.04C244.873 178.04 246.415 178.67 247.651 179.93C248.887 181.19 249.505 182.78 249.505 184.7C249.505 186.62 248.887 188.21 247.651 189.47C246.415 190.73 244.873 191.36 243.025 191.36C241.177 191.36 239.635 190.73 238.399 189.47ZM239.209 180.668C238.213 181.7 237.715 183.044 237.715 184.7C237.715 186.356 238.213 187.7 239.209 188.732C240.205 189.764 241.477 190.28 243.025 190.28C244.573 190.28 245.845 189.764 246.841 188.732C247.837 187.7 248.335 186.356 248.335 184.7C248.335 183.044 247.837 181.7 246.841 180.668C245.845 179.636 244.573 179.12 243.025 179.12C241.477 179.12 240.205 179.636 239.209 180.668ZM252.03 191V178.4H253.2V189.47L253.182 189.65H253.2L260.22 178.4H261.84V191H260.67V179.93L260.688 179.75H260.67L253.65 191H252.03ZM254.334 174.62H255.324C255.324 175.088 255.474 175.46 255.774 175.736C256.086 176.012 256.506 176.15 257.034 176.15C257.562 176.15 257.976 176.012 258.276 175.736C258.588 175.46 258.744 175.088 258.744 174.62H259.734C259.734 175.304 259.482 175.88 258.978 176.348C258.474 176.816 257.826 177.05 257.034 177.05C256.242 177.05 255.594 176.816 255.09 176.348C254.586 175.88 254.334 175.304 254.334 174.62ZM130.45 213L133.87 206.7L130.63 200.4H131.89L134.86 206.16H136.48L139.45 200.4H140.71L137.47 206.7L140.89 213H139.63L136.48 207.24H134.86L131.71 213H130.45ZM142.958 213V200.4H144.128V211.47L144.11 211.65H144.128L151.148 200.4H152.768V213H151.598V201.93L151.616 201.75H151.598L144.578 213H142.958ZM156.001 213V200.4H161.131C162.499 200.4 163.591 200.778 164.407 201.534C165.223 202.29 165.631 203.262 165.631 204.45C165.631 205.638 165.223 206.61 164.407 207.366C163.591 208.122 162.499 208.5 161.131 208.5H157.171V213H156.001ZM157.171 207.42H161.131C162.199 207.42 163.021 207.156 163.597 206.628C164.173 206.088 164.461 205.362 164.461 204.45C164.461 203.538 164.173 202.818 163.597 202.29C163.021 201.75 162.199 201.48 161.131 201.48H157.171V207.42ZM166.27 200.4H167.53L170.14 207.15H172.75L175.45 200.4H176.71L171.67 213H170.41L172.3 208.23H169.33L166.27 200.4ZM178.413 213V200.4H183.543C184.911 200.4 186.003 200.778 186.819 201.534C187.635 202.29 188.043 203.262 188.043 204.45C188.043 205.638 187.635 206.61 186.819 207.366C186.003 208.122 184.911 208.5 183.543 208.5H179.583V213H178.413ZM179.583 207.42H183.543C184.611 207.42 185.433 207.156 186.009 206.628C186.585 206.088 186.873 205.362 186.873 204.45C186.873 203.538 186.585 202.818 186.009 202.29C185.433 201.75 184.611 201.48 183.543 201.48H179.583V207.42ZM190.384 213V200.4H198.304V201.48H191.554V213H190.384ZM200.28 213V200.4H201.45V211.47L201.432 211.65H201.45L208.47 200.4H210.09V213H208.92V201.93L208.938 201.75H208.92L201.9 213H200.28ZM213.323 213V200.4H214.493V211.47L214.475 211.65H214.493L221.513 200.4H223.133V213H221.963V201.93L221.981 201.75H221.963L214.943 213H213.323ZM231.411 213V200.4H237.261C238.329 200.4 239.193 200.718 239.853 201.354C240.525 201.978 240.861 202.77 240.861 203.73C240.861 204.594 240.573 205.302 239.997 205.854C239.733 206.094 239.451 206.286 239.151 206.43V206.52C239.559 206.64 239.931 206.832 240.267 207.096C241.023 207.684 241.401 208.482 241.401 209.49C241.401 210.51 241.029 211.35 240.285 212.01C239.541 212.67 238.533 213 237.261 213H231.411ZM232.581 205.98H237.261C238.017 205.98 238.611 205.776 239.043 205.368C239.475 204.96 239.691 204.414 239.691 203.73C239.691 203.046 239.475 202.5 239.043 202.092C238.611 201.684 238.017 201.48 237.261 201.48H232.581V205.98ZM232.581 211.92H237.261C238.233 211.92 238.971 211.704 239.475 211.272C239.979 210.828 240.231 210.234 240.231 209.49C240.231 208.746 239.979 208.158 239.475 207.726C238.971 207.282 238.233 207.06 237.261 207.06H232.581V211.92ZM249.059 213V200.4H258.689V213H257.519V201.48H250.229V213H249.059ZM260.757 213L264.087 200.4H268.587L271.917 213H270.747L269.667 208.86H263.007L261.927 213H260.757ZM263.277 207.78H269.397L267.687 201.48H264.987L263.277 207.78ZM273.985 213V200.4H279.115C280.483 200.4 281.575 200.778 282.391 201.534C283.207 202.29 283.615 203.262 283.615 204.45C283.615 205.638 283.207 206.61 282.391 207.366C281.575 208.122 280.483 208.5 279.115 208.5H275.155V213H273.985ZM275.155 207.42H279.115C280.183 207.42 281.005 207.156 281.581 206.628C282.157 206.088 282.445 205.362 282.445 204.45C282.445 203.538 282.157 202.818 281.581 202.29C281.005 201.75 280.183 201.48 279.115 201.48H275.155V207.42ZM285.956 213V200.4H287.126V211.47L287.108 211.65H287.126L294.146 200.4H295.766V213H294.596V201.93L294.614 201.75H294.596L287.576 213H285.956ZM297.649 213L302.059 206.52L297.829 200.4H299.269L303.139 206.07H305.659V200.4H306.829V206.07H309.349L313.219 200.4H314.659L310.429 206.52L314.839 213H313.399L309.439 207.15H306.829V213H305.659V207.15H303.049L299.089 213H297.649ZM316.735 213V200.4H325.285V201.48H317.905V206.07H323.935V207.15H317.905V211.92H325.285V213H316.735Z" fill="#1B1B1B"/>
</svg>
