<svg width="480" height="480" viewBox="0 0 480 480" fill="none" xmlns="http://www.w3.org/2000/svg">
<circle cx="240" cy="240" r="239.5" stroke="#1B1B1B"/>
<path d="M97.62 185V172.4H98.808V183.92H104.37V172.4H105.54V183.92H111.12V172.4H112.29V185H97.62ZM115.532 185V172.4H116.702V178.07H119.492L123.542 172.4H124.982L120.572 178.52L125.162 185H123.722L119.582 179.15H116.702V185H115.532ZM127.371 183.47C126.135 182.21 125.517 180.62 125.517 178.7C125.517 176.78 126.135 175.19 127.371 173.93C128.607 172.67 130.149 172.04 131.997 172.04C133.845 172.04 135.387 172.67 136.623 173.93C137.859 175.19 138.477 176.78 138.477 178.7C138.477 180.62 137.859 182.21 136.623 183.47C135.387 184.73 133.845 185.36 131.997 185.36C130.149 185.36 128.607 184.73 127.371 183.47ZM128.181 174.668C127.185 175.7 126.687 177.044 126.687 178.7C126.687 180.356 127.185 181.7 128.181 182.732C129.177 183.764 130.449 184.28 131.997 184.28C133.545 184.28 134.817 183.764 135.813 182.732C136.809 181.7 137.307 180.356 137.307 178.7C137.307 177.044 136.809 175.7 135.813 174.668C134.817 173.636 133.545 173.12 131.997 173.12C130.449 173.12 129.177 173.636 128.181 174.668ZM139.481 185L142.721 172.4H147.131L150.371 185H149.201L146.231 173.48H143.621L140.651 185H139.481ZM151.276 185L154.606 172.4H159.106L162.436 185H161.266L160.186 180.86H153.526L152.446 185H151.276ZM153.796 179.78H159.916L158.206 173.48H155.506L153.796 179.78ZM169.005 185V172.4H178.635V185H177.465V173.48H170.175V185H169.005ZM183.006 183.47C181.77 182.21 181.152 180.62 181.152 178.7C181.152 176.78 181.77 175.19 183.006 173.93C184.242 172.67 185.784 172.04 187.632 172.04C189.48 172.04 191.022 172.67 192.258 173.93C193.494 175.19 194.112 176.78 194.112 178.7C194.112 180.62 193.494 182.21 192.258 183.47C191.022 184.73 189.48 185.36 187.632 185.36C185.784 185.36 184.242 184.73 183.006 183.47ZM183.816 174.668C182.82 175.7 182.322 177.044 182.322 178.7C182.322 180.356 182.82 181.7 183.816 182.732C184.812 183.764 186.084 184.28 187.632 184.28C189.18 184.28 190.452 183.764 191.448 182.732C192.444 181.7 192.942 180.356 192.942 178.7C192.942 177.044 192.444 175.7 191.448 174.668C190.452 173.636 189.18 173.12 187.632 173.12C186.084 173.12 184.812 173.636 183.816 174.668ZM199.968 185L203.208 172.4H207.618L210.858 185H209.688L206.718 173.48H204.108L201.138 185H199.968ZM212.933 185V172.4H221.482V173.48H214.103V178.07H220.133V179.15H214.103V183.92H221.482V185H212.933ZM223.649 176.63V172.4H224.819V176.63C224.819 177.626 225.107 178.418 225.683 179.006C226.271 179.582 227.063 179.87 228.059 179.87C228.923 179.87 229.775 179.678 230.615 179.294C230.987 179.126 231.305 178.928 231.569 178.7V172.4H232.739V185H231.569V179.87C231.293 180.062 230.957 180.242 230.561 180.41C229.697 180.77 228.803 180.95 227.879 180.95C226.619 180.95 225.599 180.554 224.819 179.762C224.039 178.97 223.649 177.926 223.649 176.63ZM235.977 185V172.4H244.527V173.48H237.147V178.07H243.177V179.15H237.147V183.92H244.527V185H235.977ZM246.964 185V172.4H248.134V178.07H255.424V172.4H256.594V185H255.424V179.15H248.134V185H246.964ZM259.831 185V172.4H261.001V183.47L260.983 183.65H261.001L268.021 172.4H269.641V185H268.471V173.93L268.489 173.75H268.471L261.451 185H259.831ZM272.874 185V172.4H274.044V178.07H276.294C276.438 176.354 277.092 174.92 278.256 173.768C279.432 172.616 280.848 172.04 282.504 172.04C284.232 172.04 285.696 172.676 286.896 173.948C288.108 175.208 288.714 176.792 288.714 178.7C288.714 180.608 288.108 182.198 286.896 183.47C285.696 184.73 284.232 185.36 282.504 185.36C280.836 185.36 279.42 184.778 278.256 183.614C277.092 182.438 276.438 180.95 276.294 179.15H274.044V185H272.874ZM277.464 178.7C277.464 180.332 277.95 181.67 278.922 182.714C279.894 183.758 281.088 184.28 282.504 184.28C283.92 184.28 285.114 183.758 286.086 182.714C287.058 181.67 287.544 180.332 287.544 178.7C287.544 177.092 287.058 175.76 286.086 174.704C285.114 173.648 283.92 173.12 282.504 173.12C281.088 173.12 279.894 173.648 278.922 174.704C277.95 175.76 277.464 177.092 277.464 178.7ZM97.62 207V194.4H99.51L103.65 202.77H104.82L108.96 194.4H110.85V207H109.68V195.66L109.698 195.48H109.68L105.54 203.85H102.93L98.79 195.48L98.772 195.498L98.79 195.66V207H97.62ZM115.225 205.47C113.989 204.21 113.371 202.62 113.371 200.7C113.371 198.78 113.989 197.19 115.225 195.93C116.461 194.67 118.003 194.04 119.851 194.04C121.699 194.04 123.241 194.67 124.477 195.93C125.713 197.19 126.331 198.78 126.331 200.7C126.331 202.62 125.713 204.21 124.477 205.47C123.241 206.73 121.699 207.36 119.851 207.36C118.003 207.36 116.461 206.73 115.225 205.47ZM116.035 196.668C115.039 197.7 114.541 199.044 114.541 200.7C114.541 202.356 115.039 203.7 116.035 204.732C117.031 205.764 118.303 206.28 119.851 206.28C121.399 206.28 122.671 205.764 123.667 204.732C124.663 203.7 125.161 202.356 125.161 200.7C125.161 199.044 124.663 197.7 123.667 196.668C122.671 195.636 121.399 195.12 119.851 195.12C118.303 195.12 117.031 195.636 116.035 196.668ZM128.586 198.63V194.4H129.756V198.63C129.756 199.626 130.044 200.418 130.62 201.006C131.208 201.582 132 201.87 132.996 201.87C133.86 201.87 134.712 201.678 135.552 201.294C135.924 201.126 136.242 200.928 136.506 200.7V194.4H137.676V207H136.506V201.87C136.23 202.062 135.894 202.242 135.498 202.41C134.634 202.77 133.74 202.95 132.816 202.95C131.556 202.95 130.536 202.554 129.756 201.762C128.976 200.97 128.586 199.926 128.586 198.63ZM140.915 207V194.4H149.465V195.48H142.085V200.07H148.115V201.15H142.085V205.92H149.465V207H140.915ZM151.901 207V194.4H153.071V200.07H155.861L159.911 194.4H161.351L156.941 200.52L161.531 207H160.091L155.951 201.15H153.071V207H151.901ZM162.157 207L165.487 194.4H169.987L173.317 207H172.147L171.067 202.86H164.407L163.327 207H162.157ZM164.677 201.78H170.797L169.087 195.48H166.387L164.677 201.78ZM175.386 207V194.4H177.276L181.416 202.77H182.586L186.726 194.4H188.616V207H187.446V195.66L187.464 195.48H187.446L183.306 203.85H180.696L176.556 195.48L176.538 195.498L176.556 195.66V207H175.386ZM191.856 207V194.4H200.406V195.48H193.026V200.07H199.056V201.15H193.026V205.92H200.406V207H191.856ZM202.843 207V194.4H204.013V200.07H211.303V194.4H212.473V207H211.303V201.15H204.013V207H202.843ZM215.71 207V194.4H216.88V200.07H224.17V194.4H225.34V207H224.17V201.15H216.88V207H215.71ZM229.711 205.47C228.475 204.21 227.857 202.62 227.857 200.7C227.857 198.78 228.475 197.19 229.711 195.93C230.947 194.67 232.489 194.04 234.337 194.04C236.185 194.04 237.727 194.67 238.963 195.93C240.199 197.19 240.817 198.78 240.817 200.7C240.817 202.62 240.199 204.21 238.963 205.47C237.727 206.73 236.185 207.36 234.337 207.36C232.489 207.36 230.947 206.73 229.711 205.47ZM230.521 196.668C229.525 197.7 229.027 199.044 229.027 200.7C229.027 202.356 229.525 203.7 230.521 204.732C231.517 205.764 232.789 206.28 234.337 206.28C235.885 206.28 237.157 205.764 238.153 204.732C239.149 203.7 239.647 202.356 239.647 200.7C239.647 199.044 239.149 197.7 238.153 196.668C237.157 195.636 235.885 195.12 234.337 195.12C232.789 195.12 231.517 195.636 230.521 196.668ZM243.343 207V194.4H244.513V205.47L244.495 205.65H244.513L251.533 194.4H253.153V207H251.983V195.93L252.001 195.75H251.983L244.963 207H243.343ZM245.647 190.62H246.637C246.637 191.088 246.787 191.46 247.087 191.736C247.399 192.012 247.819 192.15 248.347 192.15C248.875 192.15 249.289 192.012 249.589 191.736C249.901 191.46 250.057 191.088 250.057 190.62H251.047C251.047 191.304 250.795 191.88 250.291 192.348C249.787 192.816 249.139 193.05 248.347 193.05C247.555 193.05 246.907 192.816 246.403 192.348C245.899 191.88 245.647 191.304 245.647 190.62ZM97.62 229V216.4H106.26V217.48H98.79V221.26H102.75C104.07 221.26 105.132 221.632 105.936 222.376C106.752 223.108 107.16 224.026 107.16 225.13C107.16 226.234 106.752 227.158 105.936 227.902C105.132 228.634 104.07 229 102.75 229H97.62ZM98.79 227.92H102.75C103.77 227.92 104.562 227.668 105.126 227.164C105.702 226.648 105.99 225.97 105.99 225.13C105.99 224.29 105.702 223.618 105.126 223.114C104.562 222.598 103.77 222.34 102.75 222.34H98.79V227.92ZM110.813 227.47C109.577 226.21 108.959 224.62 108.959 222.7C108.959 220.78 109.577 219.19 110.813 217.93C112.049 216.67 113.591 216.04 115.439 216.04C117.287 216.04 118.829 216.67 120.065 217.93C121.301 219.19 121.919 220.78 121.919 222.7C121.919 224.62 121.301 226.21 120.065 227.47C118.829 228.73 117.287 229.36 115.439 229.36C113.591 229.36 112.049 228.73 110.813 227.47ZM111.623 218.668C110.627 219.7 110.129 221.044 110.129 222.7C110.129 224.356 110.627 225.7 111.623 226.732C112.619 227.764 113.891 228.28 115.439 228.28C116.987 228.28 118.259 227.764 119.255 226.732C120.251 225.7 120.749 224.356 120.749 222.7C120.749 221.044 120.251 219.7 119.255 218.668C118.259 217.636 116.987 217.12 115.439 217.12C113.891 217.12 112.619 217.636 111.623 218.668ZM122.923 229L126.163 216.4H130.573L133.813 229H132.643L129.673 217.48H127.063L124.093 229H122.923ZM135.888 229V216.4H144.438V217.48H137.058V222.07H143.088V223.15H137.058V227.92H144.438V229H135.888ZM145.884 225.49H147.054C147.198 226.006 147.432 226.474 147.756 226.894C148.488 227.818 149.574 228.28 151.014 228.28C152.142 228.28 153.006 228.034 153.606 227.542C154.218 227.05 154.524 226.426 154.524 225.67C154.524 224.914 154.218 224.29 153.606 223.798C153.006 223.306 152.142 223.06 151.014 223.06H149.394V221.98H151.014C152.022 221.98 152.796 221.746 153.336 221.278C153.888 220.81 154.164 220.204 154.164 219.46C154.164 218.8 153.888 218.248 153.336 217.804C152.784 217.348 152.01 217.12 151.014 217.12C149.766 217.12 148.794 217.54 148.098 218.38C147.774 218.776 147.546 219.196 147.414 219.64H146.244C146.46 218.932 146.76 218.332 147.144 217.84C148.08 216.64 149.37 216.04 151.014 216.04C152.31 216.04 153.354 216.376 154.146 217.048C154.938 217.72 155.334 218.524 155.334 219.46C155.334 220.456 154.974 221.242 154.254 221.818C153.954 222.082 153.594 222.286 153.174 222.43V222.52C153.63 222.64 154.05 222.838 154.434 223.114C155.274 223.762 155.694 224.614 155.694 225.67C155.694 226.702 155.268 227.578 154.416 228.298C153.576 229.006 152.442 229.36 151.014 229.36C149.178 229.36 147.774 228.718 146.802 227.434C146.37 226.858 146.064 226.21 145.884 225.49ZM158.3 229V216.4H159.47V222.07H166.76V216.4H167.93V229H166.76V223.15H159.47V229H158.3ZM171.167 229V216.4H172.337V227.47L172.319 227.65H172.337L179.357 216.4H180.977V229H179.807V217.93L179.825 217.75H179.807L172.787 229H171.167ZM189.255 229V216.4H190.425V222.07H197.715V216.4H198.885V229H197.715V223.15H190.425V229H189.255ZM200.952 229L204.282 216.4H208.782L212.112 229H210.942L209.862 224.86H203.202L202.122 229H200.952ZM203.472 223.78H209.592L207.882 217.48H205.182L203.472 223.78ZM218.681 229V216.4H227.321V217.48H219.851V221.26H223.811C225.131 221.26 226.193 221.632 226.997 222.376C227.813 223.108 228.221 224.026 228.221 225.13C228.221 226.234 227.813 227.158 226.997 227.902C226.193 228.634 225.131 229 223.811 229H218.681ZM219.851 227.92H223.811C224.831 227.92 225.623 227.668 226.187 227.164C226.763 226.648 227.051 225.97 227.051 225.13C227.051 224.29 226.763 223.618 226.187 223.114C225.623 222.598 224.831 222.34 223.811 222.34H219.851V227.92ZM229.569 229L232.899 216.4H237.399L240.729 229H239.559L238.479 224.86H231.819L230.739 229H229.569ZM232.089 223.78H238.209L236.499 217.48H233.799L232.089 223.78ZM241.808 225.49H242.978C243.122 226.006 243.356 226.474 243.68 226.894C244.412 227.818 245.498 228.28 246.938 228.28C248.066 228.28 248.93 228.034 249.53 227.542C250.142 227.05 250.448 226.426 250.448 225.67C250.448 224.914 250.142 224.29 249.53 223.798C248.93 223.306 248.066 223.06 246.938 223.06H245.318V221.98H246.938C247.946 221.98 248.72 221.746 249.26 221.278C249.812 220.81 250.088 220.204 250.088 219.46C250.088 218.8 249.812 218.248 249.26 217.804C248.708 217.348 247.934 217.12 246.938 217.12C245.69 217.12 244.718 217.54 244.022 218.38C243.698 218.776 243.47 219.196 243.338 219.64H242.168C242.384 218.932 242.684 218.332 243.068 217.84C244.004 216.64 245.294 216.04 246.938 216.04C248.234 216.04 249.278 216.376 250.07 217.048C250.862 217.72 251.258 218.524 251.258 219.46C251.258 220.456 250.898 221.242 250.178 221.818C249.878 222.082 249.518 222.286 249.098 222.43V222.52C249.554 222.64 249.974 222.838 250.358 223.114C251.198 223.762 251.618 224.614 251.618 225.67C251.618 226.702 251.192 227.578 250.34 228.298C249.5 229.006 248.366 229.36 246.938 229.36C245.102 229.36 243.698 228.718 242.726 227.434C242.294 226.858 241.988 226.21 241.808 225.49ZM254.224 229V216.4H262.774V217.48H255.394V222.07H261.424V223.15H255.394V227.92H262.774V229H254.224ZM275.3 229V216.4H277.19L281.33 224.77H282.5L286.64 216.4H288.53V229H287.36V217.66L287.378 217.48H287.36L283.22 225.85H280.61L276.47 217.48L276.452 217.498L276.47 217.66V229H275.3ZM291.5 220.63V216.4H292.67V220.63C292.67 221.626 292.958 222.418 293.534 223.006C294.122 223.582 294.914 223.87 295.91 223.87C296.774 223.87 297.626 223.678 298.466 223.294C298.838 223.126 299.156 222.928 299.42 222.7V216.4H300.59V229H299.42V223.87C299.144 224.062 298.808 224.242 298.412 224.41C297.548 224.77 296.654 224.95 295.73 224.95C294.47 224.95 293.45 224.554 292.67 223.762C291.89 222.97 291.5 221.926 291.5 220.63ZM304.963 227.47C303.727 226.21 303.109 224.62 303.109 222.7C303.109 220.78 303.727 219.19 304.963 217.93C306.199 216.67 307.741 216.04 309.589 216.04C311.605 216.04 313.243 216.79 314.503 218.29C315.043 218.95 315.445 219.7 315.709 220.54H314.539C314.299 219.904 313.957 219.334 313.513 218.83C312.493 217.69 311.185 217.12 309.589 217.12C308.041 217.12 306.769 217.636 305.773 218.668C304.777 219.7 304.279 221.044 304.279 222.7C304.279 224.356 304.777 225.7 305.773 226.732C306.769 227.764 308.041 228.28 309.589 228.28C311.221 228.28 312.553 227.668 313.585 226.444C314.029 225.916 314.377 225.298 314.629 224.59H315.799C315.535 225.478 315.121 226.276 314.557 226.984C313.309 228.568 311.653 229.36 309.589 229.36C307.741 229.36 306.199 228.73 304.963 227.47Z" fill="#1B1B1B"/>
</svg>
