<svg width="480" height="480" viewBox="0 0 480 480" fill="none" xmlns="http://www.w3.org/2000/svg">
<circle cx="240" cy="240" r="239.5" fill="white" stroke="#1B1B1B"/>
<path d="M131.62 169V156.4H132.79V162.07H140.08V156.4H141.25V169H140.08V163.15H132.79V169H131.62ZM144.487 169V156.4H153.037V157.48H145.657V162.07H151.687V163.15H145.657V167.92H153.037V169H144.487ZM156.608 167.47C155.372 166.21 154.754 164.62 154.754 162.7C154.754 160.78 155.372 159.19 156.608 157.93C157.844 156.67 159.386 156.04 161.234 156.04C163.082 156.04 164.624 156.67 165.86 157.93C167.096 159.19 167.714 160.78 167.714 162.7C167.714 164.62 167.096 166.21 165.86 167.47C164.624 168.73 163.082 169.36 161.234 169.36C159.386 169.36 157.844 168.73 156.608 167.47ZM157.418 158.668C156.422 159.7 155.924 161.044 155.924 162.7C155.924 164.356 156.422 165.7 157.418 166.732C158.414 167.764 159.686 168.28 161.234 168.28C162.782 168.28 164.054 167.764 165.05 166.732C166.046 165.7 166.544 164.356 166.544 162.7C166.544 161.044 166.046 159.7 165.05 158.668C164.054 157.636 162.782 157.12 161.234 157.12C159.686 157.12 158.414 157.636 157.418 158.668ZM168.709 171.52V167.92H170.149L173.029 156.4H177.349L180.229 167.92H181.669V171.52H180.499V169H169.879V171.52H168.709ZM171.319 167.92H179.059L176.449 157.48H173.929L171.319 167.92ZM183.388 169V156.4H184.558V162.07H191.848V156.4H193.018V169H191.848V163.15H184.558V169H183.388ZM197.389 167.47C196.153 166.21 195.535 164.62 195.535 162.7C195.535 160.78 196.153 159.19 197.389 157.93C198.625 156.67 200.167 156.04 202.015 156.04C203.863 156.04 205.405 156.67 206.641 157.93C207.877 159.19 208.495 160.78 208.495 162.7C208.495 164.62 207.877 166.21 206.641 167.47C205.405 168.73 203.863 169.36 202.015 169.36C200.167 169.36 198.625 168.73 197.389 167.47ZM198.199 158.668C197.203 159.7 196.705 161.044 196.705 162.7C196.705 164.356 197.203 165.7 198.199 166.732C199.195 167.764 200.467 168.28 202.015 168.28C203.563 168.28 204.835 167.764 205.831 166.732C206.827 165.7 207.325 164.356 207.325 162.7C207.325 161.044 206.827 159.7 205.831 158.668C204.835 157.636 203.563 157.12 202.015 157.12C200.467 157.12 199.195 157.636 198.199 158.668ZM211.02 169V156.4H212.19V162.07H214.98L219.03 156.4H220.47L216.06 162.52L220.65 169H219.21L215.07 163.15H212.19V169H211.02ZM222.446 169V156.4H227.576C228.944 156.4 230.036 156.778 230.852 157.534C231.668 158.29 232.076 159.262 232.076 160.45C232.076 161.638 231.668 162.61 230.852 163.366C230.036 164.122 228.944 164.5 227.576 164.5H223.616V169H222.446ZM223.616 163.42H227.576C228.644 163.42 229.466 163.156 230.042 162.628C230.618 162.088 230.906 161.362 230.906 160.45C230.906 159.538 230.618 158.818 230.042 158.29C229.466 157.75 228.644 157.48 227.576 157.48H223.616V163.42ZM232.895 169L236.225 156.4H240.725L244.055 169H242.885L241.805 164.86H235.145L234.065 169H232.895ZM235.415 163.78H241.535L239.825 157.48H237.125L235.415 163.78ZM243.963 157.48V156.4H254.133V157.48H249.633V169H248.463V157.48H243.963ZM255.933 169V156.4H257.103V162.07H264.393V156.4H265.562V169H264.393V163.15H257.103V169H255.933ZM269.934 167.47C268.698 166.21 268.08 164.62 268.08 162.7C268.08 160.78 268.698 159.19 269.934 157.93C271.17 156.67 272.712 156.04 274.56 156.04C276.408 156.04 277.95 156.67 279.186 157.93C280.422 159.19 281.04 160.78 281.04 162.7C281.04 164.62 280.422 166.21 279.186 167.47C277.95 168.73 276.408 169.36 274.56 169.36C272.712 169.36 271.17 168.73 269.934 167.47ZM270.744 158.668C269.748 159.7 269.25 161.044 269.25 162.7C269.25 164.356 269.748 165.7 270.744 166.732C271.74 167.764 273.012 168.28 274.56 168.28C276.108 168.28 277.38 167.764 278.376 166.732C279.372 165.7 279.87 164.356 279.87 162.7C279.87 161.044 279.372 159.7 278.376 158.668C277.38 157.636 276.108 157.12 274.56 157.12C273.012 157.12 271.74 157.636 270.744 158.668ZM283.565 169V156.4H292.115V157.48H284.735V162.07H290.765V163.15H284.735V167.92H292.115V169H283.565ZM130.27 178.4H131.53L134.14 185.15H136.75L139.45 178.4H140.71L135.67 191H134.41L136.3 186.23H133.33L130.27 178.4ZM142.143 182.63V178.4H143.313V182.63C143.313 183.626 143.601 184.418 144.177 185.006C144.765 185.582 145.557 185.87 146.553 185.87C147.417 185.87 148.269 185.678 149.109 185.294C149.481 185.126 149.799 184.928 150.063 184.7V178.4H151.233V191H150.063V185.87C149.787 186.062 149.451 186.242 149.055 186.41C148.191 186.77 147.297 186.95 146.373 186.95C145.113 186.95 144.093 186.554 143.313 185.762C142.533 184.97 142.143 183.926 142.143 182.63ZM153.302 191L156.632 178.4H161.132L164.462 191H163.292L162.212 186.86H155.552L154.472 191H153.302ZM155.822 185.78H161.942L160.232 179.48H157.532L155.822 185.78ZM167.313 189.47C166.077 188.21 165.459 186.62 165.459 184.7C165.459 182.78 166.077 181.19 167.313 179.93C168.549 178.67 170.091 178.04 171.939 178.04C173.955 178.04 175.593 178.79 176.853 180.29C177.393 180.95 177.795 181.7 178.059 182.54H176.889C176.649 181.904 176.307 181.334 175.863 180.83C174.843 179.69 173.535 179.12 171.939 179.12C170.391 179.12 169.119 179.636 168.123 180.668C167.127 181.7 166.629 183.044 166.629 184.7C166.629 186.356 167.127 187.7 168.123 188.732C169.119 189.764 170.391 190.28 171.939 190.28C173.571 190.28 174.903 189.668 175.935 188.444C176.379 187.916 176.727 187.298 176.979 186.59H178.149C177.885 187.478 177.471 188.276 176.907 188.984C175.659 190.568 174.003 191.36 171.939 191.36C170.091 191.36 168.549 190.73 167.313 189.47ZM179.135 179.48V178.4H189.305V179.48H184.805V191H183.635V179.48H179.135ZM191.104 191V178.4H192.274V189.47L192.256 189.65H192.274L199.294 178.4H200.914V191H199.744V179.93L199.762 179.75H199.744L192.724 191H191.104ZM204.147 191V178.4H212.697V179.48H205.317V184.07H211.347V185.15H205.317V189.92H212.697V191H204.147ZM220.179 191V178.4H226.029C227.097 178.4 227.961 178.718 228.621 179.354C229.293 179.978 229.629 180.77 229.629 181.73C229.629 182.594 229.341 183.302 228.765 183.854C228.501 184.094 228.219 184.286 227.919 184.43V184.52C228.327 184.64 228.699 184.832 229.035 185.096C229.791 185.684 230.169 186.482 230.169 187.49C230.169 188.51 229.797 189.35 229.053 190.01C228.309 190.67 227.301 191 226.029 191H220.179ZM221.349 183.98H226.029C226.785 183.98 227.379 183.776 227.811 183.368C228.243 182.96 228.459 182.414 228.459 181.73C228.459 181.046 228.243 180.5 227.811 180.092C227.379 179.684 226.785 179.48 226.029 179.48H221.349V183.98ZM221.349 189.92H226.029C227.001 189.92 227.739 189.704 228.243 189.272C228.747 188.828 228.999 188.234 228.999 187.49C228.999 186.746 228.747 186.158 228.243 185.726C227.739 185.282 227.001 185.06 226.029 185.06H221.349V189.92ZM237.827 191V178.4H242.957C244.325 178.4 245.417 178.778 246.233 179.534C247.049 180.29 247.457 181.262 247.457 182.45C247.457 183.638 247.049 184.61 246.233 185.366C245.417 186.122 244.325 186.5 242.957 186.5H238.997V191H237.827ZM238.997 185.42H242.957C244.025 185.42 244.847 185.156 245.423 184.628C245.999 184.088 246.287 183.362 246.287 182.45C246.287 181.538 245.999 180.818 245.423 180.29C244.847 179.75 244.025 179.48 242.957 179.48H238.997V185.42ZM250.932 189.47C249.696 188.21 249.078 186.62 249.078 184.7C249.078 182.78 249.696 181.19 250.932 179.93C252.168 178.67 253.71 178.04 255.558 178.04C257.406 178.04 258.948 178.67 260.184 179.93C261.42 181.19 262.038 182.78 262.038 184.7C262.038 186.62 261.42 188.21 260.184 189.47C258.948 190.73 257.406 191.36 255.558 191.36C253.71 191.36 252.168 190.73 250.932 189.47ZM251.742 180.668C250.746 181.7 250.248 183.044 250.248 184.7C250.248 186.356 250.746 187.7 251.742 188.732C252.738 189.764 254.01 190.28 255.558 190.28C257.106 190.28 258.378 189.764 259.374 188.732C260.37 187.7 260.868 186.356 260.868 184.7C260.868 183.044 260.37 181.7 259.374 180.668C258.378 179.636 257.106 179.12 255.558 179.12C254.01 179.12 252.738 179.636 251.742 180.668ZM262.668 178.4H263.928L266.538 185.15H269.148L271.848 178.4H273.108L268.068 191H266.808L268.698 186.23H265.728L262.668 178.4ZM133.546 214.026C132.142 212.19 131.44 210.108 131.44 207.78C131.44 205.452 132.142 203.37 133.546 201.534C134.17 200.706 134.878 199.998 135.67 199.41L136.3 200.22C135.628 200.748 135.01 201.402 134.446 202.182C133.222 203.91 132.61 205.776 132.61 207.78C132.61 209.748 133.222 211.614 134.446 213.378C135.01 214.158 135.628 214.812 136.3 215.34L135.67 216.15C134.878 215.562 134.17 214.854 133.546 214.026ZM138.194 213V200.4H143.324C144.692 200.4 145.784 200.778 146.6 201.534C147.416 202.29 147.824 203.262 147.824 204.45C147.824 205.638 147.416 206.61 146.6 207.366C145.784 208.122 144.692 208.5 143.324 208.5H139.364V213H138.194ZM139.364 207.42H143.324C144.392 207.42 145.214 207.156 145.79 206.628C146.366 206.088 146.654 205.362 146.654 204.45C146.654 203.538 146.366 202.818 145.79 202.29C145.214 201.75 144.392 201.48 143.324 201.48H139.364V207.42ZM151.299 211.47C150.063 210.21 149.445 208.62 149.445 206.7C149.445 204.78 150.063 203.19 151.299 201.93C152.535 200.67 154.077 200.04 155.925 200.04C157.773 200.04 159.315 200.67 160.551 201.93C161.787 203.19 162.405 204.78 162.405 206.7C162.405 208.62 161.787 210.21 160.551 211.47C159.315 212.73 157.773 213.36 155.925 213.36C154.077 213.36 152.535 212.73 151.299 211.47ZM152.109 202.668C151.113 203.7 150.615 205.044 150.615 206.7C150.615 208.356 151.113 209.7 152.109 210.732C153.105 211.764 154.377 212.28 155.925 212.28C157.473 212.28 158.745 211.764 159.741 210.732C160.737 209.7 161.235 208.356 161.235 206.7C161.235 205.044 160.737 203.7 159.741 202.668C158.745 201.636 157.473 201.12 155.925 201.12C154.377 201.12 153.105 201.636 152.109 202.668ZM166.065 211.47C164.829 210.21 164.211 208.62 164.211 206.7C164.211 204.78 164.829 203.19 166.065 201.93C167.301 200.67 168.843 200.04 170.691 200.04C172.707 200.04 174.345 200.79 175.605 202.29C176.145 202.95 176.547 203.7 176.811 204.54H175.641C175.401 203.904 175.059 203.334 174.615 202.83C173.595 201.69 172.287 201.12 170.691 201.12C169.143 201.12 167.871 201.636 166.875 202.668C165.879 203.7 165.381 205.044 165.381 206.7C165.381 208.356 165.879 209.7 166.875 210.732C167.871 211.764 169.143 212.28 170.691 212.28C172.323 212.28 173.655 211.668 174.687 210.444C175.131 209.916 175.479 209.298 175.731 208.59H176.901C176.637 209.478 176.223 210.276 175.659 210.984C174.411 212.568 172.755 213.36 170.691 213.36C168.843 213.36 167.301 212.73 166.065 211.47ZM180.461 211.47C179.225 210.21 178.607 208.62 178.607 206.7C178.607 204.78 179.225 203.19 180.461 201.93C181.697 200.67 183.239 200.04 185.087 200.04C187.103 200.04 188.741 200.79 190.001 202.29C190.541 202.95 190.943 203.7 191.207 204.54H190.037C189.797 203.904 189.455 203.334 189.011 202.83C187.991 201.69 186.683 201.12 185.087 201.12C183.539 201.12 182.267 201.636 181.271 202.668C180.275 203.7 179.777 205.044 179.777 206.7C179.777 208.356 180.275 209.7 181.271 210.732C182.267 211.764 183.539 212.28 185.087 212.28C186.719 212.28 188.051 211.668 189.083 210.444C189.527 209.916 189.875 209.298 190.127 208.59H191.297C191.033 209.478 190.619 210.276 190.055 210.984C188.807 212.568 187.151 213.36 185.087 213.36C183.239 213.36 181.697 212.73 180.461 211.47ZM193.724 213V200.4H194.894V211.47L194.876 211.65H194.894L201.914 200.4H203.534V213H202.364V201.93L202.382 201.75H202.364L195.344 213H193.724ZM206.766 213V200.4H207.936V211.47L207.918 211.65H207.936L214.956 200.4H216.576V213H215.406V201.93L215.424 201.75H215.406L208.386 213H206.766ZM209.07 196.62H210.06C210.06 197.088 210.21 197.46 210.51 197.736C210.822 198.012 211.242 198.15 211.77 198.15C212.298 198.15 212.712 198.012 213.012 197.736C213.324 197.46 213.48 197.088 213.48 196.62H214.47C214.47 197.304 214.218 197.88 213.714 198.348C213.21 198.816 212.562 199.05 211.77 199.05C210.978 199.05 210.33 198.816 209.826 198.348C209.322 197.88 209.07 197.304 209.07 196.62ZM220.943 211.47C219.707 210.21 219.089 208.62 219.089 206.7C219.089 204.78 219.707 203.19 220.943 201.93C222.179 200.67 223.721 200.04 225.569 200.04C227.585 200.04 229.223 200.79 230.483 202.29C231.023 202.95 231.425 203.7 231.689 204.54H230.519C230.279 203.904 229.937 203.334 229.493 202.83C228.473 201.69 227.165 201.12 225.569 201.12C224.021 201.12 222.749 201.636 221.753 202.668C220.757 203.7 220.259 205.044 220.259 206.7C220.259 208.356 220.757 209.7 221.753 210.732C222.749 211.764 224.021 212.28 225.569 212.28C227.201 212.28 228.533 211.668 229.565 210.444C230.009 209.916 230.357 209.298 230.609 208.59H231.779C231.515 209.478 231.101 210.276 230.537 210.984C229.289 212.568 227.633 213.36 225.569 213.36C223.721 213.36 222.179 212.73 220.943 211.47ZM234.206 213V200.4H235.376V206.07H238.166L242.216 200.4H243.656L239.246 206.52L243.836 213H242.396L238.256 207.15H235.376V213H234.206ZM246.045 211.47C244.809 210.21 244.191 208.62 244.191 206.7C244.191 204.78 244.809 203.19 246.045 201.93C247.281 200.67 248.823 200.04 250.671 200.04C252.519 200.04 254.061 200.67 255.297 201.93C256.533 203.19 257.151 204.78 257.151 206.7C257.151 208.62 256.533 210.21 255.297 211.47C254.061 212.73 252.519 213.36 250.671 213.36C248.823 213.36 247.281 212.73 246.045 211.47ZM246.855 202.668C245.859 203.7 245.361 205.044 245.361 206.7C245.361 208.356 245.859 209.7 246.855 210.732C247.851 211.764 249.123 212.28 250.671 212.28C252.219 212.28 253.491 211.764 254.487 210.732C255.483 209.7 255.981 208.356 255.981 206.7C255.981 205.044 255.483 203.7 254.487 202.668C253.491 201.636 252.219 201.12 250.671 201.12C249.123 201.12 247.851 201.636 246.855 202.668ZM259.677 213V200.4H267.597V201.48H260.847V213H259.677ZM270.707 211.47C269.471 210.21 268.853 208.62 268.853 206.7C268.853 204.78 269.471 203.19 270.707 201.93C271.943 200.67 273.485 200.04 275.333 200.04C277.181 200.04 278.723 200.67 279.959 201.93C281.195 203.19 281.813 204.78 281.813 206.7C281.813 208.62 281.195 210.21 279.959 211.47C278.723 212.73 277.181 213.36 275.333 213.36C273.485 213.36 271.943 212.73 270.707 211.47ZM271.517 202.668C270.521 203.7 270.023 205.044 270.023 206.7C270.023 208.356 270.521 209.7 271.517 210.732C272.513 211.764 273.785 212.28 275.333 212.28C276.881 212.28 278.153 211.764 279.149 210.732C280.145 209.7 280.643 208.356 280.643 206.7C280.643 205.044 280.145 203.7 279.149 202.668C278.153 201.636 276.881 201.12 275.333 201.12C273.785 201.12 272.513 201.636 271.517 202.668ZM132.754 233.47C131.518 232.21 130.9 230.62 130.9 228.7C130.9 226.78 131.518 225.19 132.754 223.93C133.99 222.67 135.532 222.04 137.38 222.04C139.228 222.04 140.77 222.67 142.006 223.93C143.242 225.19 143.86 226.78 143.86 228.7C143.86 230.62 143.242 232.21 142.006 233.47C140.77 234.73 139.228 235.36 137.38 235.36C135.532 235.36 133.99 234.73 132.754 233.47ZM133.564 224.668C132.568 225.7 132.07 227.044 132.07 228.7C132.07 230.356 132.568 231.7 133.564 232.732C134.56 233.764 135.832 234.28 137.38 234.28C138.928 234.28 140.2 233.764 141.196 232.732C142.192 231.7 142.69 230.356 142.69 228.7C142.69 227.044 142.192 225.7 141.196 224.668C140.2 223.636 138.928 223.12 137.38 223.12C135.832 223.12 134.56 223.636 133.564 224.668ZM146.386 235V222.4H155.026V223.48H147.556V227.26H151.516C152.836 227.26 153.898 227.632 154.702 228.376C155.518 229.108 155.926 230.026 155.926 231.13C155.926 232.234 155.518 233.158 154.702 233.902C153.898 234.634 152.836 235 151.516 235H146.386ZM147.556 233.92H151.516C152.536 233.92 153.328 233.668 153.892 233.164C154.468 232.648 154.756 231.97 154.756 231.13C154.756 230.29 154.468 229.618 153.892 229.114C153.328 228.598 152.536 228.34 151.516 228.34H147.556V233.92ZM158.444 235V222.4H159.632V233.92H165.194V222.4H166.364V233.92H171.944V222.4H173.114V233.92H174.734V237.52H173.564V235H158.444ZM176.796 235V222.4H185.346V223.48H177.966V228.07H183.996V229.15H177.966V233.92H185.346V235H176.796ZM188.916 233.47C187.68 232.21 187.062 230.62 187.062 228.7C187.062 226.78 187.68 225.19 188.916 223.93C190.152 222.67 191.694 222.04 193.542 222.04C195.558 222.04 197.196 222.79 198.456 224.29C198.996 224.95 199.398 225.7 199.662 226.54H198.492C198.252 225.904 197.91 225.334 197.466 224.83C196.446 223.69 195.138 223.12 193.542 223.12C191.994 223.12 190.722 223.636 189.726 224.668C188.73 225.7 188.232 227.044 188.232 228.7C188.232 230.356 188.73 231.7 189.726 232.732C190.722 233.764 191.994 234.28 193.542 234.28C195.174 234.28 196.506 233.668 197.538 232.444C197.982 231.916 198.33 231.298 198.582 230.59H199.752C199.488 231.478 199.074 232.276 198.51 232.984C197.262 234.568 195.606 235.36 193.542 235.36C191.694 235.36 190.152 234.73 188.916 233.47ZM200.739 223.48V222.4H210.909V223.48H206.409V235H205.239V223.48H200.739ZM212.708 235V222.4H218.558C219.626 222.4 220.49 222.718 221.15 223.354C221.822 223.978 222.158 224.77 222.158 225.73C222.158 226.594 221.87 227.302 221.294 227.854C221.03 228.094 220.748 228.286 220.448 228.43V228.52C220.856 228.64 221.228 228.832 221.564 229.096C222.32 229.684 222.698 230.482 222.698 231.49C222.698 232.51 222.326 233.35 221.582 234.01C220.838 234.67 219.83 235 218.558 235H212.708ZM213.878 227.98H218.558C219.314 227.98 219.908 227.776 220.34 227.368C220.772 226.96 220.988 226.414 220.988 225.73C220.988 225.046 220.772 224.5 220.34 224.092C219.908 223.684 219.314 223.48 218.558 223.48H213.878V227.98ZM213.878 233.92H218.558C219.53 233.92 220.268 233.704 220.772 233.272C221.276 232.828 221.528 232.234 221.528 231.49C221.528 230.746 221.276 230.158 220.772 229.726C220.268 229.282 219.53 229.06 218.558 229.06H213.878V233.92ZM224.141 235L227.471 222.4H231.971L235.301 235H234.131L233.051 230.86H226.391L225.311 235H224.141ZM226.661 229.78H232.781L231.071 223.48H228.371L226.661 229.78ZM239.975 222.4H241.235L243.845 229.15H246.455L249.155 222.4H250.415L245.375 235H244.115L246.005 230.23H243.035L239.975 222.4ZM252.118 235V222.4H257.248C258.616 222.4 259.708 222.778 260.524 223.534C261.34 224.29 261.748 225.262 261.748 226.45C261.748 227.638 261.34 228.61 260.524 229.366C259.708 230.122 258.616 230.5 257.248 230.5H253.288V235H252.118ZM253.288 229.42H257.248C258.316 229.42 259.138 229.156 259.714 228.628C260.29 228.088 260.578 227.362 260.578 226.45C260.578 225.538 260.29 224.818 259.714 224.29C259.138 223.75 258.316 223.48 257.248 223.48H253.288V229.42ZM265.223 233.47C263.987 232.21 263.369 230.62 263.369 228.7C263.369 226.78 263.987 225.19 265.223 223.93C266.459 222.67 268.001 222.04 269.849 222.04C271.697 222.04 273.239 222.67 274.475 223.93C275.711 225.19 276.329 226.78 276.329 228.7C276.329 230.62 275.711 232.21 274.475 233.47C273.239 234.73 271.697 235.36 269.849 235.36C268.001 235.36 266.459 234.73 265.223 233.47ZM266.033 224.668C265.037 225.7 264.539 227.044 264.539 228.7C264.539 230.356 265.037 231.7 266.033 232.732C267.029 233.764 268.301 234.28 269.849 234.28C271.397 234.28 272.669 233.764 273.665 232.732C274.661 231.7 275.159 230.356 275.159 228.7C275.159 227.044 274.661 225.7 273.665 224.668C272.669 223.636 271.397 223.12 269.849 223.12C268.301 223.12 267.029 223.636 266.033 224.668ZM277.333 235L280.573 222.4H284.983L288.223 235H287.053L284.083 223.48H281.473L278.503 235H277.333ZM291.08 233.47C289.844 232.21 289.226 230.62 289.226 228.7C289.226 226.78 289.844 225.19 291.08 223.93C292.316 222.67 293.858 222.04 295.706 222.04C297.554 222.04 299.096 222.67 300.332 223.93C301.568 225.19 302.186 226.78 302.186 228.7C302.186 230.62 301.568 232.21 300.332 233.47C299.096 234.73 297.554 235.36 295.706 235.36C293.858 235.36 292.316 234.73 291.08 233.47ZM291.89 224.668C290.894 225.7 290.396 227.044 290.396 228.7C290.396 230.356 290.894 231.7 291.89 232.732C292.886 233.764 294.158 234.28 295.706 234.28C297.254 234.28 298.526 233.764 299.522 232.732C300.518 231.7 301.016 230.356 301.016 228.7C301.016 227.044 300.518 225.7 299.522 224.668C298.526 223.636 297.254 223.12 295.706 223.12C294.158 223.12 292.886 223.636 291.89 224.668ZM304.712 235V222.4H312.632V223.48H305.882V235H304.712ZM315.742 233.47C314.506 232.21 313.888 230.62 313.888 228.7C313.888 226.78 314.506 225.19 315.742 223.93C316.978 222.67 318.52 222.04 320.368 222.04C322.216 222.04 323.758 222.67 324.994 223.93C326.23 225.19 326.848 226.78 326.848 228.7C326.848 230.62 326.23 232.21 324.994 233.47C323.758 234.73 322.216 235.36 320.368 235.36C318.52 235.36 316.978 234.73 315.742 233.47ZM316.552 224.668C315.556 225.7 315.058 227.044 315.058 228.7C315.058 230.356 315.556 231.7 316.552 232.732C317.548 233.764 318.82 234.28 320.368 234.28C321.916 234.28 323.188 233.764 324.184 232.732C325.18 231.7 325.678 230.356 325.678 228.7C325.678 227.044 325.18 225.7 324.184 224.668C323.188 223.636 321.916 223.12 320.368 223.12C318.82 223.12 317.548 223.636 316.552 224.668ZM329.374 235V222.4H335.224C336.292 222.4 337.156 222.718 337.816 223.354C338.488 223.978 338.824 224.77 338.824 225.73C338.824 226.594 338.536 227.302 337.96 227.854C337.696 228.094 337.414 228.286 337.114 228.43V228.52C337.522 228.64 337.894 228.832 338.23 229.096C338.986 229.684 339.364 230.482 339.364 231.49C339.364 232.51 338.992 233.35 338.248 234.01C337.504 234.67 336.496 235 335.224 235H329.374ZM330.544 227.98H335.224C335.98 227.98 336.574 227.776 337.006 227.368C337.438 226.96 337.654 226.414 337.654 225.73C337.654 225.046 337.438 224.5 337.006 224.092C336.574 223.684 335.98 223.48 335.224 223.48H330.544V227.98ZM330.544 233.92H335.224C336.196 233.92 336.934 233.704 337.438 233.272C337.942 232.828 338.194 232.234 338.194 231.49C338.194 230.746 337.942 230.158 337.438 229.726C336.934 229.282 336.196 229.06 335.224 229.06H330.544V233.92ZM342.463 235.378C343.699 233.602 344.317 231.736 344.317 229.78C344.317 227.788 343.699 225.922 342.463 224.182C341.899 223.414 341.287 222.76 340.627 222.22L341.257 221.41C342.037 222.01 342.739 222.718 343.363 223.534C344.779 225.406 345.487 227.488 345.487 229.78C345.487 232.072 344.779 234.154 343.363 236.026C342.739 236.842 342.037 237.55 341.257 238.15L340.627 237.34C341.287 236.8 341.899 236.146 342.463 235.378Z" fill="#1B1B1B"/>
</svg>
