<svg width="480" height="480" viewBox="0 0 480 480" fill="none" xmlns="http://www.w3.org/2000/svg">
<circle cx="240" cy="240" r="239.5" fill="#FF7A00" stroke="#1B1B1B"/>
<path d="M131.62 169V156.4H133.51L137.65 164.77H138.82L142.96 156.4H144.85V169H143.68V157.66L143.698 157.48H143.68L139.54 165.85H136.93L132.79 157.48L132.772 157.498L132.79 157.66V169H131.62ZM148.091 169V156.4H156.641V157.48H149.261V162.07H155.291V163.15H149.261V167.92H156.641V169H148.091ZM159.077 169V156.4H164.207C165.575 156.4 166.667 156.778 167.483 157.534C168.299 158.29 168.707 159.262 168.707 160.45C168.707 161.638 168.299 162.61 167.483 163.366C166.667 164.122 165.575 164.5 164.207 164.5H160.247V169H159.077ZM160.247 163.42H164.207C165.275 163.42 166.097 163.156 166.673 162.628C167.249 162.088 167.537 161.362 167.537 160.45C167.537 159.538 167.249 158.818 166.673 158.29C166.097 157.75 165.275 157.48 164.207 157.48H160.247V163.42ZM172.182 167.47C170.946 166.21 170.328 164.62 170.328 162.7C170.328 160.78 170.946 159.19 172.182 157.93C173.418 156.67 174.96 156.04 176.808 156.04C178.656 156.04 180.198 156.67 181.434 157.93C182.67 159.19 183.288 160.78 183.288 162.7C183.288 164.62 182.67 166.21 181.434 167.47C180.198 168.73 178.656 169.36 176.808 169.36C174.96 169.36 173.418 168.73 172.182 167.47ZM172.992 158.668C171.996 159.7 171.498 161.044 171.498 162.7C171.498 164.356 171.996 165.7 172.992 166.732C173.988 167.764 175.26 168.28 176.808 168.28C178.356 168.28 179.628 167.764 180.624 166.732C181.62 165.7 182.118 164.356 182.118 162.7C182.118 161.044 181.62 159.7 180.624 158.668C179.628 157.636 178.356 157.12 176.808 157.12C175.26 157.12 173.988 157.636 172.992 158.668ZM185.813 169V156.4H195.443V169H194.273V157.48H186.983V169H185.813ZM198.681 169V156.4H203.811C205.179 156.4 206.271 156.778 207.087 157.534C207.903 158.29 208.311 159.262 208.311 160.45C208.311 161.638 207.903 162.61 207.087 163.366C206.271 164.122 205.179 164.5 203.811 164.5H199.851V169H198.681ZM199.851 163.42H203.811C204.879 163.42 205.701 163.156 206.277 162.628C206.853 162.088 207.141 161.362 207.141 160.45C207.141 159.538 206.853 158.818 206.277 158.29C205.701 157.75 204.879 157.48 203.811 157.48H199.851V163.42ZM210.651 169V156.4H211.821V167.47L211.803 167.65H211.821L218.841 156.4H220.461V169H219.291V157.93L219.309 157.75H219.291L212.271 169H210.651ZM223.154 160.27C223.154 159.118 223.544 158.188 224.324 157.48C225.116 156.76 226.196 156.4 227.564 156.4H232.784V169H231.596V164.14H227.474L224.594 169H223.244L226.214 163.96C225.326 163.78 224.594 163.36 224.018 162.7C223.442 162.04 223.154 161.23 223.154 160.27ZM225.134 158.218C224.594 158.698 224.324 159.382 224.324 160.27C224.324 161.158 224.594 161.848 225.134 162.34C225.686 162.82 226.496 163.06 227.564 163.06H231.596V157.48H227.564C226.496 157.48 225.686 157.726 225.134 158.218ZM234.576 157.48V156.4H244.746V157.48H240.246V169H239.076V157.48H234.576ZM246.546 169V156.4H247.716V167.47L247.698 167.65H247.716L254.736 156.4H256.356V169H255.186V157.93L255.204 157.75H255.186L248.166 169H246.546ZM259.589 169V156.4H268.139V157.48H260.759V162.07H266.789V163.15H260.759V167.92H268.139V169H259.589ZM275.62 169V156.4H281.47C282.538 156.4 283.402 156.718 284.062 157.354C284.734 157.978 285.07 158.77 285.07 159.73C285.07 160.594 284.782 161.302 284.206 161.854C283.942 162.094 283.66 162.286 283.36 162.43V162.52C283.768 162.64 284.14 162.832 284.476 163.096C285.232 163.684 285.61 164.482 285.61 165.49C285.61 166.51 285.238 167.35 284.494 168.01C283.75 168.67 282.742 169 281.47 169H275.62ZM276.79 161.98H281.47C282.226 161.98 282.82 161.776 283.252 161.368C283.684 160.96 283.9 160.414 283.9 159.73C283.9 159.046 283.684 158.5 283.252 158.092C282.82 157.684 282.226 157.48 281.47 157.48H276.79V161.98ZM276.79 167.92H281.47C282.442 167.92 283.18 167.704 283.684 167.272C284.188 166.828 284.44 166.234 284.44 165.49C284.44 164.746 284.188 164.158 283.684 163.726C283.18 163.282 282.442 163.06 281.47 163.06H276.79V167.92ZM294.402 167.47C293.166 166.21 292.548 164.62 292.548 162.7C292.548 160.78 293.166 159.19 294.402 157.93C295.638 156.67 297.18 156.04 299.028 156.04C300.876 156.04 302.418 156.67 303.654 157.93C304.89 159.19 305.508 160.78 305.508 162.7C305.508 164.62 304.89 166.21 303.654 167.47C302.418 168.73 300.876 169.36 299.028 169.36C297.18 169.36 295.638 168.73 294.402 167.47ZM295.212 158.668C294.216 159.7 293.718 161.044 293.718 162.7C293.718 164.356 294.216 165.7 295.212 166.732C296.208 167.764 297.48 168.28 299.028 168.28C300.576 168.28 301.848 167.764 302.844 166.732C303.84 165.7 304.338 164.356 304.338 162.7C304.338 161.044 303.84 159.7 302.844 158.668C301.848 157.636 300.576 157.12 299.028 157.12C297.48 157.12 296.208 157.636 295.212 158.668ZM306.513 169L309.843 156.4H314.343L317.673 169H316.503L315.423 164.86H308.763L307.683 169H306.513ZM309.033 163.78H315.152L313.443 157.48H310.743L309.033 163.78ZM318.49 164.59H319.66C319.888 165.286 320.23 165.904 320.686 166.444C321.718 167.668 323.056 168.28 324.7 168.28C326.176 168.28 327.406 167.8 328.39 166.84C329.374 165.868 329.914 164.638 330.01 163.15H324.34V162.07H330.01C329.866 160.606 329.308 159.418 328.336 158.506C327.376 157.582 326.164 157.12 324.7 157.12C323.08 157.12 321.772 157.69 320.776 158.83C320.332 159.334 319.99 159.904 319.75 160.54H318.58C318.844 159.7 319.246 158.95 319.786 158.29C321.046 156.79 322.684 156.04 324.7 156.04C326.548 156.04 328.09 156.67 329.326 157.93C330.562 159.19 331.18 160.78 331.18 162.7C331.18 164.62 330.562 166.21 329.326 167.47C328.09 168.73 326.548 169.36 324.7 169.36C323.572 169.36 322.588 169.138 321.748 168.694C320.92 168.238 320.248 167.668 319.732 166.984C319.168 166.276 318.754 165.478 318.49 164.59ZM332.343 168.46C332.343 168.184 332.421 167.968 332.577 167.812C332.745 167.644 332.967 167.56 333.243 167.56C333.543 167.56 333.783 167.68 333.963 167.92C334.143 168.16 334.233 168.52 334.233 169C334.233 170.224 333.633 170.944 332.433 171.16V170.62C333.153 170.44 333.513 170.05 333.513 169.45C333.513 169.426 333.495 169.342 333.459 169.198C333.435 169.126 333.423 169.09 333.423 169.09L333.315 169.144C333.195 169.168 333.111 169.18 333.063 169.18C332.883 169.18 332.715 169.108 332.559 168.964C332.415 168.808 332.343 168.64 332.343 168.46ZM131.62 191V178.4H137.47C138.538 178.4 139.402 178.718 140.062 179.354C140.734 179.978 141.07 180.77 141.07 181.73C141.07 182.594 140.782 183.302 140.206 183.854C139.942 184.094 139.66 184.286 139.36 184.43V184.52C139.768 184.64 140.14 184.832 140.476 185.096C141.232 185.684 141.61 186.482 141.61 187.49C141.61 188.51 141.238 189.35 140.494 190.01C139.75 190.67 138.742 191 137.47 191H131.62ZM132.79 183.98H137.47C138.226 183.98 138.82 183.776 139.252 183.368C139.684 182.96 139.9 182.414 139.9 181.73C139.9 181.046 139.684 180.5 139.252 180.092C138.82 179.684 138.226 179.48 137.47 179.48H132.79V183.98ZM132.79 189.92H137.47C138.442 189.92 139.18 189.704 139.684 189.272C140.188 188.828 140.44 188.234 140.44 187.49C140.44 186.746 140.188 186.158 139.684 185.726C139.18 185.282 138.442 185.06 137.47 185.06H132.79V189.92ZM155.204 191V178.4H156.374V191H155.204ZM144.224 191V178.4H145.394V182.9H148.994C150.362 182.9 151.454 183.278 152.27 184.034C153.086 184.79 153.494 185.762 153.494 186.95C153.494 188.138 153.086 189.11 152.27 189.866C151.454 190.622 150.362 191 148.994 191H144.224ZM145.394 189.92H148.994C150.062 189.92 150.884 189.656 151.46 189.128C152.036 188.588 152.324 187.862 152.324 186.95C152.324 186.038 152.036 185.318 151.46 184.79C150.884 184.25 150.062 183.98 148.994 183.98H145.394V189.92ZM160.756 189.47C159.52 188.21 158.902 186.62 158.902 184.7C158.902 182.78 159.52 181.19 160.756 179.93C161.992 178.67 163.534 178.04 165.382 178.04C167.398 178.04 169.036 178.79 170.296 180.29C170.836 180.95 171.238 181.7 171.502 182.54H170.332C170.092 181.904 169.75 181.334 169.306 180.83C168.286 179.69 166.978 179.12 165.382 179.12C163.834 179.12 162.562 179.636 161.566 180.668C160.57 181.7 160.072 183.044 160.072 184.7C160.072 186.356 160.57 187.7 161.566 188.732C162.562 189.764 163.834 190.28 165.382 190.28C167.014 190.28 168.346 189.668 169.378 188.444C169.822 187.916 170.17 187.298 170.422 186.59H171.592C171.328 187.478 170.914 188.276 170.35 188.984C169.102 190.568 167.446 191.36 165.382 191.36C163.534 191.36 161.992 190.73 160.756 189.47ZM172.578 179.48V178.4H182.748V179.48H178.248V191H177.078V179.48H172.578ZM182.657 191L185.987 178.4H190.487L193.817 191H192.647L191.567 186.86H184.907L183.827 191H182.657ZM185.177 185.78H191.297L189.587 179.48H186.887L185.177 185.78ZM195.886 191V178.4H201.736C202.804 178.4 203.668 178.718 204.328 179.354C205 179.978 205.336 180.77 205.336 181.73C205.336 182.594 205.048 183.302 204.472 183.854C204.208 184.094 203.926 184.286 203.626 184.43V184.52C204.034 184.64 204.406 184.832 204.742 185.096C205.498 185.684 205.876 186.482 205.876 187.49C205.876 188.51 205.504 189.35 204.76 190.01C204.016 190.67 203.008 191 201.736 191H195.886ZM197.056 183.98H201.736C202.492 183.98 203.086 183.776 203.518 183.368C203.95 182.96 204.166 182.414 204.166 181.73C204.166 181.046 203.95 180.5 203.518 180.092C203.086 179.684 202.492 179.48 201.736 179.48H197.056V183.98ZM197.056 189.92H201.736C202.708 189.92 203.446 189.704 203.95 189.272C204.454 188.828 204.706 188.234 204.706 187.49C204.706 186.746 204.454 186.158 203.95 185.726C203.446 185.282 202.708 185.06 201.736 185.06H197.056V189.92ZM208.489 191V178.4H209.659V184.07H212.449L216.499 178.4H217.939L213.529 184.52L218.119 191H216.679L212.539 185.15H209.659V191H208.489ZM218.745 191L222.075 178.4H226.575L229.905 191H228.735L227.655 186.86H220.995L219.915 191H218.745ZM221.265 185.78H227.385L225.675 179.48H222.975L221.265 185.78ZM234.759 191L238.089 178.4H242.589L245.919 191H244.749L243.669 186.86H237.009L235.929 191H234.759ZM237.279 185.78H243.399L241.689 179.48H238.989L237.279 185.78ZM247.987 191V178.4H253.207C254.575 178.4 255.649 178.76 256.429 179.48C257.221 180.188 257.617 181.118 257.617 182.27C257.617 183.254 257.323 184.088 256.735 184.772C256.159 185.456 255.343 185.882 254.287 186.05L257.527 191H256.177L253.027 186.14H249.157V191H247.987ZM249.157 185.06H253.207C254.275 185.06 255.079 184.82 255.619 184.34C256.171 183.848 256.447 183.158 256.447 182.27C256.447 181.382 256.171 180.698 255.619 180.218C255.079 179.726 254.275 179.48 253.207 179.48H249.157V185.06ZM259.052 191L262.382 178.4H266.882L270.212 191H269.042L267.962 186.86H261.302L260.222 191H259.052ZM261.572 185.78H267.692L265.982 179.48H263.282L261.572 185.78ZM272.28 191V178.4H278.13C279.198 178.4 280.062 178.718 280.722 179.354C281.394 179.978 281.73 180.77 281.73 181.73C281.73 182.594 281.442 183.302 280.866 183.854C280.602 184.094 280.32 184.286 280.02 184.43V184.52C280.428 184.64 280.8 184.832 281.136 185.096C281.892 185.684 282.27 186.482 282.27 187.49C282.27 188.51 281.898 189.35 281.154 190.01C280.41 190.67 279.402 191 278.13 191H272.28ZM273.45 183.98H278.13C278.886 183.98 279.48 183.776 279.912 183.368C280.344 182.96 280.56 182.414 280.56 181.73C280.56 181.046 280.344 180.5 279.912 180.092C279.48 179.684 278.886 179.48 278.13 179.48H273.45V183.98ZM273.45 189.92H278.13C279.102 189.92 279.84 189.704 280.344 189.272C280.848 188.828 281.1 188.234 281.1 187.49C281.1 186.746 280.848 186.158 280.344 185.726C279.84 185.282 279.102 185.06 278.13 185.06H273.45V189.92ZM284.884 191V178.4H286.054V184.07H293.344V178.4H294.514V191H293.344V185.15H286.054V191H284.884ZM297.751 191V178.4H306.301V179.48H298.921V184.07H304.951V185.15H298.921V189.92H306.301V191H297.751ZM307.567 191L310.897 178.4H315.397L318.727 191H317.557L316.477 186.86H309.817L308.737 191H307.567ZM310.087 185.78H316.207L314.497 179.48H311.797L310.087 185.78ZM320.796 191V178.4H321.966V189.92H328.806V191H320.796ZM327.899 179.48V178.4H338.069V179.48H333.569V191H332.399V179.48H327.899ZM339.868 191V178.4H341.038V184.07H348.328V178.4H349.498V191H348.328V185.15H341.038V191H339.868Z" fill="#1B1B1B"/>
</svg>
