<svg xmlns="http://www.w3.org/2000/svg" fill="none" viewBox="0 0 197 36"><path fill="#FF7A00" d="M.6 22.28V1.4h4.32v20.88c0 2.944.816 5.28 2.448 7.008C9 31.016 11.144 31.88 13.8 31.88c2.656 0 4.8-.864 6.432-2.592 1.632-1.728 2.448-4.064 2.448-7.008V1.4H27v20.88c0 4.16-1.216 7.488-3.648 9.984-2.4 2.464-5.584 3.696-9.552 3.696s-7.168-1.232-9.6-3.696C1.8 29.768.6 26.44.6 22.28zM34.449 35V1.4h6.24l16.512 28.32h.096l-.048-.48V1.4h4.32V35h-6.24L38.817 6.68h-.096l.048.48v27.792l-4.32.048zM69.23 35V1.4h4.32V35h-4.32zM84.494 30.968c-3.296-3.36-4.944-7.616-4.944-12.768 0-5.152 1.648-9.392 4.944-12.72C87.822 2.12 92.014.44 97.07.44c5.664 0 10.128 2.048 13.392 6.144 1.44 1.76 2.496 3.792 3.168 6.096h-4.32c-.672-1.6-1.52-2.96-2.544-4.08-2.528-2.72-5.76-4.08-9.696-4.08-3.872 0-7.04 1.264-9.504 3.792-2.464 2.528-3.696 5.824-3.696 9.888s1.232 7.36 3.696 9.888c2.464 2.528 5.632 3.792 9.504 3.792 4 0 7.312-1.472 9.936-4.416 1.056-1.216 1.904-2.704 2.544-4.464h4.32c-.768 2.496-1.888 4.656-3.36 6.48-3.36 4.32-7.84 6.48-13.44 6.48-5.056 0-9.248-1.664-12.576-4.992zM119.621 35V1.4h23.52v4.08h-19.2v10.56h15.6v4.08h-15.6v10.8h19.2V35h-23.52zM148.918 35V1.4h4.32v29.52h17.52V35h-21.84zM174.84 35V1.4h4.32v29.52h17.52V35h-21.84z"/></svg>