<svg width="1042" height="431" viewBox="0 0 1042 431" fill="none" xmlns="http://www.w3.org/2000/svg">
<path d="M1001.42 266.446L1001.86 266.222L1001.42 266.446ZM888.695 126.944L888.377 127.329L888.695 126.944ZM719.995 33.7318L719.833 34.2048L719.995 33.7318ZM521 1V1.5V1ZM322.005 33.7318L321.843 33.2588L322.005 33.7318ZM153.304 126.944L153.623 127.329L153.304 126.944ZM40.5826 266.446L40.1356 266.222L40.5826 266.446ZM1041.5 431C1041.5 374.451 1028.03 318.459 1001.86 266.222L1000.97 266.67C1027.07 318.773 1040.5 374.612 1040.5 431H1041.5ZM1001.86 266.222C975.699 213.986 937.35 166.529 889.014 126.559L888.377 127.329C936.614 167.218 974.871 214.567 1000.97 266.67L1001.86 266.222ZM889.014 126.559C840.678 86.5887 783.3 54.8866 720.157 33.2588L719.833 34.2048C782.869 55.7961 840.14 87.4411 888.377 127.329L889.014 126.559ZM720.157 33.2588C657.015 11.631 589.341 0.499998 521 0.5V1.5C589.234 1.5 656.797 12.6136 719.833 34.2048L720.157 33.2588ZM521 0.5C452.659 0.500002 384.985 11.631 321.843 33.2588L322.167 34.2048C385.202 12.6136 452.766 1.5 521 1.5V0.5ZM321.843 33.2588C258.7 54.8866 201.322 86.5887 152.986 126.559L153.623 127.329C201.86 87.4411 259.131 55.7961 322.167 34.2048L321.843 33.2588ZM152.986 126.559C104.65 166.529 66.3014 213.986 40.1356 266.222L41.0297 266.67C67.1287 214.567 105.386 167.218 153.623 127.329L152.986 126.559ZM40.1356 266.222C13.9695 318.459 0.499994 374.451 0.5 431H1.5C1.49999 374.612 14.9309 318.773 41.0297 266.67L40.1356 266.222Z" fill="#2C57F0"/>
</svg>
