<svg width="1042" height="431" viewBox="0 0 1042 431" fill="none" xmlns="http://www.w3.org/2000/svg">
<path d="M1001.42 266.446L1001.86 266.222L1001.42 266.446ZM888.695 126.944L888.377 127.329L888.695 126.944ZM719.995 33.7318L719.833 34.2048L719.995 33.7318ZM521 1V1.5V1ZM322.005 33.7318L321.843 33.2588L322.005 33.7318ZM153.304 126.944L153.623 127.329L153.304 126.944ZM40.5826 266.446L40.1356 266.222L40.5826 266.446ZM1.5 431C1.5 427.445 1.55338 423.892 1.65996 420.342L0.660407 420.312C0.553533 423.872 0.5 427.435 0.5 431H1.5ZM2.93799 399.066C3.57603 391.991 4.42562 384.935 5.48523 377.903L4.49639 377.754C3.43383 384.805 2.58186 391.881 1.94204 398.976L2.93799 399.066ZM9.28417 356.929C10.7535 349.991 12.429 343.084 14.3093 336.214L13.3448 335.95C11.4594 342.838 9.77924 349.764 8.30587 356.722L9.28417 356.929ZM20.5281 315.824C22.7878 309.113 25.2461 302.444 27.9015 295.823L26.9734 295.451C24.311 302.089 21.8461 308.776 19.5803 315.505L20.5281 315.824ZM36.3858 276.266C37.8863 273.054 39.4343 269.855 41.0297 266.67L40.1356 266.222C38.5362 269.415 36.9842 272.622 35.4798 275.843L36.3858 276.266ZM41.0297 266.67C42.7107 263.314 44.4422 259.978 46.2236 256.662L45.3427 256.189C43.5568 259.513 41.8209 262.858 40.1356 266.222L41.0297 266.67ZM57.4513 237.106C61.3609 230.718 65.4609 224.415 69.7466 218.203L68.9235 217.635C64.6275 223.862 60.5176 230.18 56.5984 236.584L57.4513 237.106ZM83.0457 199.99C87.618 194.065 92.3657 188.233 97.2845 182.501L96.5255 181.85C91.5956 187.595 86.837 193.44 82.254 199.379L83.0457 199.99ZM112.4 165.762C117.551 160.338 122.862 155.015 128.33 149.796L127.64 149.072C122.16 154.302 116.837 159.638 111.675 165.074L112.4 165.762ZM145.015 134.618C147.848 132.162 150.717 129.732 153.623 127.329L152.986 126.559C150.074 128.966 147.199 131.401 144.36 133.863L145.015 134.618ZM153.623 127.329C156.726 124.764 159.865 122.233 163.042 119.736L162.424 118.949C159.241 121.451 156.095 123.988 152.986 126.559L153.623 127.329ZM182.423 105.25C188.974 100.596 195.66 96.0808 202.475 91.7076L201.935 90.866C195.107 95.2476 188.407 99.7719 181.844 104.435L182.423 105.25ZM223.137 79.1128C230.091 75.0889 237.165 71.2063 244.35 67.4688L243.888 66.5816C236.69 70.326 229.604 74.2157 222.636 78.2472L223.137 79.1128ZM266.059 56.7765C273.343 53.3846 280.729 50.1365 288.212 47.0356L287.829 46.1117C280.333 49.2181 272.934 52.472 265.637 55.8699L266.059 56.7765ZM310.759 38.2447C314.54 36.8613 318.343 35.5146 322.167 34.2048L321.843 33.2588C318.012 34.5708 314.203 35.9198 310.416 37.3055L310.759 38.2447ZM322.167 34.2048C326.153 32.8395 330.157 31.5161 334.178 30.2348L333.874 29.282C329.846 30.5655 325.835 31.8912 321.843 33.2588L322.167 34.2048ZM358.442 23.0694C366.566 20.8565 374.75 18.8111 382.987 16.9345L382.764 15.9595C374.514 17.8392 366.316 19.8879 358.179 22.1046L358.442 23.0694ZM407.766 11.8272C416.047 10.298 424.373 8.93684 432.735 7.74484L432.594 6.75485C424.218 7.94877 415.879 9.31218 407.584 10.8438L407.766 11.8272ZM457.85 4.68516C466.23 3.83666 474.639 3.15667 483.069 2.6464L483.008 1.64823C474.565 2.15931 466.143 2.84038 457.749 3.69025L457.85 4.68516ZM508.349 1.62736C512.563 1.5425 516.78 1.5 521 1.5V0.5C516.773 0.5 512.55 0.542571 508.329 0.627564L508.349 1.62736ZM521 1.5C525.22 1.5 529.437 1.5425 533.651 1.62736L533.671 0.627562C529.45 0.542571 525.226 0.5 521 0.5V1.5ZM558.931 2.6464C567.361 3.15666 575.77 3.83665 584.15 4.68516L584.25 3.69024C575.857 2.84038 567.435 2.1593 558.991 1.64823L558.931 2.6464ZM609.265 7.74484C617.627 8.93684 625.953 10.298 634.234 11.8272L634.415 10.8438C626.121 9.31217 617.782 7.94877 609.406 6.75485L609.265 7.74484ZM659.013 16.9345C667.25 18.8111 675.434 20.8565 683.558 23.0694L683.821 22.1046C675.683 19.8879 667.486 17.8392 659.236 15.9595L659.013 16.9345ZM707.822 30.2348C711.843 31.5161 715.847 32.8395 719.833 34.2048L720.157 33.2588C716.165 31.8912 712.154 30.5655 708.126 29.282L707.822 30.2348ZM719.833 34.2048C723.657 35.5146 727.46 36.8613 731.24 38.2446L731.584 37.3055C727.797 35.9198 723.988 34.5708 720.157 33.2588L719.833 34.2048ZM753.788 47.0355C761.271 50.1364 768.657 53.3845 775.941 56.7764L776.363 55.8699C769.066 52.4719 761.667 49.2181 754.171 46.1117L753.788 47.0355ZM797.65 67.4687C804.835 71.2063 811.908 75.0888 818.863 79.1128L819.364 78.2472C812.396 74.2157 805.31 70.326 798.112 66.5816L797.65 67.4687ZM839.525 91.7075C846.34 96.0808 853.026 100.596 859.577 105.25L860.156 104.435C853.593 99.7718 846.893 95.2476 840.065 90.8659L839.525 91.7075ZM878.958 119.736C882.134 122.232 885.274 124.764 888.377 127.329L889.014 126.559C885.905 123.988 882.759 121.451 879.576 118.949L878.958 119.736ZM888.377 127.329C891.282 129.732 894.152 132.162 896.984 134.618L897.64 133.863C894.801 131.401 891.926 128.966 889.014 126.559L888.377 127.329ZM913.67 149.796C919.138 155.014 924.449 160.338 929.6 165.762L930.325 165.074C925.163 159.638 919.84 154.302 914.36 149.072L913.67 149.796ZM944.715 182.501C949.634 188.233 954.382 194.065 958.954 199.99L959.746 199.379C955.163 193.44 950.404 187.595 945.474 181.85L944.715 182.501ZM972.253 218.203C976.539 224.415 980.639 230.718 984.549 237.106L985.402 236.584C981.482 230.18 977.372 223.862 973.076 217.635L972.253 218.203ZM995.776 256.662C997.558 259.978 999.289 263.314 1000.97 266.67L1001.86 266.222C1000.18 262.858 998.443 259.513 996.657 256.189L995.776 256.662ZM1000.97 266.67C1002.57 269.855 1004.11 273.054 1005.61 276.266L1006.52 275.843C1005.02 272.622 1003.46 269.415 1001.86 266.222L1000.97 266.67ZM1014.1 295.823C1016.75 302.444 1019.21 309.113 1021.47 315.824L1022.42 315.505C1020.15 308.776 1017.69 302.089 1015.03 295.451L1014.1 295.823ZM1027.69 336.213C1029.57 343.084 1031.25 349.991 1032.72 356.929L1033.69 356.721C1032.22 349.764 1030.54 342.838 1028.66 335.949L1027.69 336.213ZM1036.51 377.903C1037.57 384.934 1038.42 391.991 1039.06 399.065L1040.06 398.976C1039.42 391.881 1038.57 384.805 1037.5 377.754L1036.51 377.903ZM1040.34 420.342C1040.45 423.892 1040.5 427.445 1040.5 431H1041.5C1041.5 427.435 1041.45 423.872 1041.34 420.312L1040.34 420.342ZM1001.42 266.446L1002.31 265.998L1001.42 266.446ZM888.695 126.944L888.058 127.715L888.695 126.944ZM719.995 33.7318L719.671 34.6778V34.6778L719.995 33.7318ZM521 1V2V1ZM322.005 33.7318L321.681 32.7858L322.005 33.7318ZM153.304 126.944L153.942 127.715L153.304 126.944ZM40.5826 266.446L39.6885 265.998L40.5826 266.446ZM2 431C2 427.45 2.05331 423.902 2.15973 420.357L0.160633 420.297C0.0536082 423.862 -3.57628e-07 427.43 0 431H2ZM3.43597 399.11C4.07311 392.046 4.92152 384.999 5.97965 377.978L4.00198 377.679C2.93794 384.74 2.08478 391.826 1.44406 398.931L3.43597 399.11ZM9.77332 357.032C11.2406 350.104 12.9139 343.206 14.7916 336.346L12.8625 335.818C10.9746 342.716 9.29212 349.651 7.81672 356.618L9.77332 357.032ZM21.0019 315.984C23.2586 309.281 25.7137 302.621 28.3656 296.009L26.5093 295.265C23.8434 301.911 21.3753 308.607 19.1065 315.346L21.0019 315.984ZM36.8388 276.478C38.3374 273.27 39.8834 270.075 41.4767 266.894L39.6885 265.998C38.0871 269.195 36.5331 272.407 35.0268 275.631L36.8388 276.478ZM41.4767 266.894C43.1556 263.542 44.8849 260.21 46.6641 256.899L44.9022 255.952C43.1141 259.28 41.376 262.629 39.6885 265.998L41.4767 266.894ZM57.8778 237.367C61.7826 230.987 65.8776 224.691 70.1582 218.487L68.512 217.351C64.2108 223.585 60.0959 229.911 56.1719 236.323L57.8778 237.367ZM83.4415 200.295C88.0085 194.377 92.7507 188.553 97.6639 182.826L96.1461 181.524C91.2106 187.276 86.4465 193.128 81.8581 199.073L83.4415 200.295ZM112.762 166.107C117.908 160.689 123.213 155.371 128.675 150.157L127.294 148.711C121.809 153.946 116.48 159.287 111.312 164.729L112.762 166.107ZM145.343 134.996C148.173 132.542 151.039 130.115 153.942 127.715L152.667 126.173C149.753 128.584 146.874 131.021 144.033 133.485L145.343 134.996ZM153.942 127.715C157.041 125.152 160.178 122.623 163.351 120.129L162.115 118.556C158.929 121.061 155.779 123.6 152.667 126.173L153.942 127.715ZM182.712 105.658C189.257 101.008 195.936 96.4974 202.745 92.1284L201.665 90.4452C194.83 94.831 188.124 99.3597 181.554 104.027L182.712 105.658ZM223.387 79.5456C230.335 75.5254 237.402 71.6465 244.581 67.9123L243.658 66.138C236.453 69.8859 229.36 73.7792 222.386 77.8145L223.387 79.5456ZM266.27 57.2297C273.547 53.8409 280.927 50.5957 288.403 47.4975L287.638 45.6498C280.135 48.7589 272.729 52.0157 265.426 55.4167L266.27 57.2297ZM310.931 38.7142C314.709 37.3321 318.508 35.9865 322.329 34.6778L321.681 32.7858C317.847 34.0989 314.035 35.4491 310.244 36.836L310.931 38.7142ZM322.329 34.6778C326.311 33.3137 330.312 31.9915 334.33 30.7112L333.722 28.8056C329.691 30.0902 325.677 31.417 321.681 32.7858L322.329 34.6778ZM358.573 23.5518C366.69 21.3407 374.868 19.2971 383.098 17.422L382.653 15.472C374.396 17.3532 366.192 19.4037 358.047 21.6222L358.573 23.5518ZM407.857 12.3189C416.131 10.791 424.45 9.43088 432.806 8.23984L432.523 6.25985C424.141 7.45474 415.795 8.81925 407.494 10.3521L407.857 12.3189ZM457.901 5.18262C466.274 4.33479 474.676 3.65534 483.099 3.14549L482.978 1.14914C474.528 1.66063 466.099 2.34225 457.699 3.19279L457.901 5.18262ZM508.359 2.12726C512.57 2.04247 516.784 2 521 2V0C516.77 1.78814e-07 512.543 0.0426053 508.319 0.127665L508.359 2.12726ZM521 2C525.216 2 529.43 2.04247 533.64 2.12726L533.681 0.127664C529.457 0.0426045 525.23 -1.19209e-07 521 0V2ZM558.901 3.14549C567.324 3.65534 575.726 4.33479 584.099 5.18261L584.301 3.19279C575.901 2.34224 567.472 1.66062 559.022 1.14914L558.901 3.14549ZM609.194 8.23983C617.55 9.43087 625.868 10.791 634.143 12.3189L634.506 10.3521C626.205 8.81924 617.859 7.45473 609.477 6.25985L609.194 8.23983ZM658.902 17.422C667.132 19.297 675.31 21.3407 683.427 23.5518L683.953 21.6221C675.808 19.4037 667.604 17.3532 659.347 15.472L658.902 17.422ZM707.67 30.7112C711.688 31.9915 715.689 33.3137 719.671 34.6778L720.319 32.7858C716.323 31.417 712.309 30.0902 708.277 28.8056L707.67 30.7112ZM719.671 34.6778C723.492 35.9865 727.291 37.332 731.069 38.7142L731.756 36.836C727.965 35.4491 724.153 34.0989 720.319 32.7858L719.671 34.6778ZM753.597 47.4974C761.073 50.5956 768.453 53.8408 775.73 57.2297L776.574 55.4166C769.271 52.0156 761.865 48.7589 754.362 45.6498L753.597 47.4974ZM797.419 67.9123C804.598 71.6464 811.664 75.5254 818.613 79.5455L819.614 77.8144C812.64 73.7792 805.547 69.8858 798.342 66.138L797.419 67.9123ZM839.255 92.1283C846.063 96.4974 852.743 101.008 859.287 105.658L860.446 104.027C853.876 99.3596 847.17 94.831 840.335 90.4451L839.255 92.1283ZM878.649 120.129C881.822 122.623 884.959 125.152 888.058 127.715L889.333 126.173C886.221 123.6 883.071 121.061 879.885 118.556L878.649 120.129ZM888.058 127.715C890.961 130.115 893.827 132.542 896.657 134.996L897.967 133.485C895.126 131.021 892.247 128.584 889.333 126.173L888.058 127.715ZM913.325 150.157C918.786 155.371 924.092 160.689 929.237 166.107L930.688 164.729C925.52 159.287 920.191 153.946 914.705 148.711L913.325 150.157ZM944.336 182.826C949.249 188.553 953.991 194.377 958.558 200.295L960.142 199.073C955.553 193.128 950.789 187.276 945.854 181.524L944.336 182.826ZM971.842 218.487C976.122 224.691 980.217 230.987 984.122 237.367L985.828 236.323C981.904 229.911 977.789 223.585 973.488 217.351L971.842 218.487ZM995.336 256.899C997.115 260.21 998.844 263.542 1000.52 266.894L1002.31 265.998C1000.62 262.629 998.886 259.28 997.098 255.952L995.336 256.899ZM1000.52 266.894C1002.12 270.075 1003.66 273.27 1005.16 276.477L1006.97 275.631C1005.47 272.406 1003.91 269.195 1002.31 265.998L1000.52 266.894ZM1013.63 296.009C1016.29 302.621 1018.74 309.281 1021 315.984L1022.89 315.346C1020.62 308.607 1018.16 301.911 1015.49 295.264L1013.63 296.009ZM1027.21 336.345C1029.09 343.206 1030.76 350.104 1032.23 357.032L1034.18 356.618C1032.71 349.651 1031.03 342.716 1029.14 335.818L1027.21 336.345ZM1036.02 377.977C1037.08 384.999 1037.93 392.046 1038.56 399.11L1040.56 398.931C1039.92 391.826 1039.06 384.74 1038 377.679L1036.02 377.977ZM1039.84 420.357C1039.95 423.902 1040 427.45 1040 431H1042C1042 427.43 1041.95 423.862 1041.84 420.297L1039.84 420.357Z" fill="#1B1B1B"/>
</svg>
