<svg width="1253" height="421" viewBox="0 0 1253 421" fill="none" xmlns="http://www.w3.org/2000/svg">
<path d="M722.5 300V326H669.5V413H640.5V326H479V296.5L643 63H669.5V300H722.5ZM640.5 300V162C640.5 139.667 640.667 120.5 641 104.5C604.333 161.5 558.833 226.667 504.5 300H640.5ZM857.832 61.5C939.499 61.5 980.332 122 980.332 243C980.332 361.667 939.665 421 858.332 421C776.999 421 736.332 362.5 736.332 245.5C736.332 122.833 776.832 61.5 857.832 61.5ZM858.332 89.5C842.665 89.5 828.999 93.1667 817.332 100.5C805.999 107.5 797.332 116.167 791.332 126.5C785.332 136.833 780.499 149.667 776.832 165C773.165 180.333 770.832 194 769.832 206C769.165 218 768.832 231.5 768.832 246.5C768.832 344.833 798.665 394 858.332 394C917.665 394 947.332 343.333 947.332 242C947.332 140.333 917.665 89.5 858.332 89.5ZM1233.16 300V326H1180.16V413H1151.16V326H989.664V296.5L1153.66 63H1180.16V300H1233.16ZM1151.16 300V162C1151.16 139.667 1151.33 120.5 1151.66 104.5C1115 161.5 1069.5 226.667 1015.16 300H1151.16Z" fill="#1B1B1B"/>
<path d="M432.768 322.841V0" stroke="black" stroke-miterlimit="10"/>
<path d="M412.722 324.788L345.898 8.49805" stroke="black" stroke-miterlimit="10"/>
<path d="M394.447 330.288L264.625 32.9473" stroke="black" stroke-miterlimit="10"/>
<path d="M377.781 339.058L191.199 71.5449" stroke="black" stroke-miterlimit="10"/>
<path d="M363.089 350.797L127.396 122.508" stroke="black" stroke-miterlimit="10"/>
<path d="M350.972 365.027L74.7832 184.307" stroke="black" stroke-miterlimit="10"/>
<path d="M341.914 381.17L34.9297 255.426" stroke="black" stroke-miterlimit="10"/>
<path d="M336.238 398.873L9.68945 334.148" stroke="black" stroke-miterlimit="10"/>
<path d="M334.227 418.289H0.916016" stroke="black" stroke-miterlimit="10"/>
<path d="M531.316 418.291H864.627" stroke="black" stroke-miterlimit="10"/>
<path d="M529.303 398.873L855.851 334.148" stroke="black" stroke-miterlimit="10"/>
<path d="M523.625 381.17L830.609 255.426" stroke="black" stroke-miterlimit="10"/>
<path d="M514.568 365.027L790.758 184.307" stroke="black" stroke-miterlimit="10"/>
<path d="M502.451 350.797L738.144 122.508" stroke="black" stroke-miterlimit="10"/>
<path d="M487.758 339.058L674.339 71.5449" stroke="black" stroke-miterlimit="10"/>
<path d="M471.096 330.288L600.918 32.9473" stroke="black" stroke-miterlimit="10"/>
<path d="M452.818 324.788L519.642 8.49805" stroke="black" stroke-miterlimit="10"/>
</svg>
