<svg width="736" height="501" viewBox="0 0 736 501" fill="none" xmlns="http://www.w3.org/2000/svg">
<path d="M516.211 385.905V0" stroke="black" stroke-miterlimit="10"/>
<path d="M492.181 388.231L412.305 10.1562" stroke="black" stroke-miterlimit="10"/>
<path d="M470.416 394.877L315.234 39.4531" stroke="black" stroke-miterlimit="10"/>
<path d="M450.568 405.316L227.539 85.5469" stroke="black" stroke-miterlimit="10"/>
<path d="M432.905 419.367L151.172 146.484" stroke="black" stroke-miterlimit="10"/>
<path d="M418.421 436.335L88.2812 220.312" stroke="black" stroke-miterlimit="10"/>
<path d="M407.576 455.58L40.625 305.273" stroke="black" stroke-miterlimit="10"/>
<path d="M400.883 476.782L10.5469 399.414" stroke="black" stroke-miterlimit="10"/>
<path d="M398.42 500H0" stroke="black" stroke-miterlimit="10"/>
<path d="M633.984 500H1032.4" stroke="black" stroke-miterlimit="10"/>
<path d="M631.641 476.782L1021.98 399.414" stroke="black" stroke-miterlimit="10"/>
<path d="M624.805 455.58L991.755 305.273" stroke="black" stroke-miterlimit="10"/>
<path d="M614.062 436.335L944.203 220.312" stroke="black" stroke-miterlimit="10"/>
<path d="M599.414 419.367L881.147 146.484" stroke="black" stroke-miterlimit="10"/>
<path d="M582.031 405.316L805.06 85.5469" stroke="black" stroke-miterlimit="10"/>
<path d="M562.109 394.877L717.291 39.4531" stroke="black" stroke-miterlimit="10"/>
<path d="M540.234 388.231L620.111 10.1562" stroke="black" stroke-miterlimit="10"/>
<path d="M232.65 382.3V405.7H184.95V484H158.85V405.7H13.5V379.15L161.1 169H184.95V382.3H232.65ZM158.85 382.3V258.1C158.85 238 159 220.75 159.3 206.35C126.3 257.65 85.35 316.3 36.45 382.3H158.85ZM354.449 167.65C427.949 167.65 464.699 222.1 464.699 331C464.699 437.8 428.099 491.2 354.899 491.2C281.699 491.2 245.099 438.55 245.099 333.25C245.099 222.85 281.549 167.65 354.449 167.65ZM354.899 192.85C340.799 192.85 328.499 196.15 317.999 202.75C307.799 209.05 299.999 216.85 294.599 226.15C289.199 235.45 284.849 247 281.549 260.8C278.249 274.6 276.149 286.9 275.249 297.7C274.649 308.5 274.349 320.65 274.349 334.15C274.349 422.65 301.199 466.9 354.899 466.9C408.299 466.9 434.999 421.3 434.999 330.1C434.999 238.6 408.299 192.85 354.899 192.85ZM692.248 382.3V405.7H644.548V484H618.448V405.7H473.098V379.15L620.698 169H644.548V382.3H692.248ZM618.448 382.3V258.1C618.448 238 618.598 220.75 618.898 206.35C585.898 257.65 544.948 316.3 496.048 382.3H618.448Z" fill="#1B1B1B"/>
</svg>
