<svg width="360" height="389" viewBox="0 0 360 389" fill="none" xmlns="http://www.w3.org/2000/svg">
<path d="M134.4 339.8V350.2H113.2V385H101.6V350.2H37V338.4L102.6 245H113.2V339.8H134.4ZM101.6 339.8V284.6C101.6 275.667 101.667 268 101.8 261.6C87.1333 284.4 68.9333 310.467 47.2 339.8H101.6ZM188.533 244.4C221.199 244.4 237.533 268.6 237.533 317C237.533 364.467 221.266 388.2 188.733 388.2C156.199 388.2 139.933 364.8 139.933 318C139.933 268.933 156.133 244.4 188.533 244.4ZM188.733 255.6C182.466 255.6 176.999 257.067 172.333 260C167.799 262.8 164.333 266.267 161.933 270.4C159.533 274.533 157.599 279.667 156.133 285.8C154.666 291.933 153.733 297.4 153.333 302.2C153.066 307 152.933 312.4 152.933 318.4C152.933 357.733 164.866 377.4 188.733 377.4C212.466 377.4 224.333 357.133 224.333 316.6C224.333 275.933 212.466 255.6 188.733 255.6ZM338.666 339.8V350.2H317.466V385H305.866V350.2H241.266V338.4L306.866 245H317.466V339.8H338.666ZM305.866 339.8V284.6C305.866 275.667 305.932 268 306.066 261.6C291.399 284.4 273.199 310.467 251.466 339.8H305.866Z" fill="#1B1B1B"/>
<path d="M252.367 297.06V0" stroke="black" stroke-miterlimit="10"/>
<path d="M233.87 298.855L172.383 7.82227" stroke="black" stroke-miterlimit="10"/>
<path d="M217.115 303.966L97.6602 30.3691" stroke="black" stroke-miterlimit="10"/>
<path d="M201.836 312.002L30.1543 65.8516" stroke="black" stroke-miterlimit="10"/>
<path d="M188.24 322.819L-28.6309 112.76" stroke="black" stroke-miterlimit="10"/>
<path d="M177.087 335.881L-77.0469 169.592" stroke="black" stroke-miterlimit="10"/>
<path d="M168.743 350.695L-113.727 234.992" stroke="black" stroke-miterlimit="10"/>
<path d="M163.587 367.017L-136.885 307.461" stroke="black" stroke-miterlimit="10"/>
<path d="M161.694 384.889H-145" stroke="black" stroke-miterlimit="10"/>
<path d="M343.023 384.889H649.718" stroke="black" stroke-miterlimit="10"/>
<path d="M341.223 367.017L641.694 307.461" stroke="black" stroke-miterlimit="10"/>
<path d="M335.961 350.695L618.431 234.992" stroke="black" stroke-miterlimit="10"/>
<path d="M327.691 335.881L581.825 169.592" stroke="black" stroke-miterlimit="10"/>
<path d="M316.416 322.819L533.287 112.76" stroke="black" stroke-miterlimit="10"/>
<path d="M303.035 312.002L474.717 65.8516" stroke="black" stroke-miterlimit="10"/>
<path d="M287.695 303.966L407.15 30.3691" stroke="black" stroke-miterlimit="10"/>
<path d="M270.857 298.855L332.344 7.82227" stroke="black" stroke-miterlimit="10"/>
</svg>
