<svg width="1760" height="665" viewBox="0 0 1760 665" fill="none" xmlns="http://www.w3.org/2000/svg">
<path d="M911.6 471.2V512.8H826.8V652H780.4V512.8H522V465.6L784.4 92H826.8V471.2H911.6ZM780.4 471.2V250.4C780.4 214.667 780.667 184 781.2 158.4C722.533 249.6 649.733 353.867 562.8 471.2H780.4ZM1128.13 89.6C1258.8 89.6 1324.13 186.4 1324.13 380C1324.13 569.867 1259.06 664.8 1128.93 664.8C998.798 664.8 933.731 571.2 933.731 384C933.731 187.733 998.531 89.6 1128.13 89.6ZM1128.93 134.4C1103.86 134.4 1082 140.267 1063.33 152C1045.2 163.2 1031.33 177.067 1021.73 193.6C1012.13 210.133 1004.4 230.667 998.531 255.2C992.665 279.733 988.931 301.6 987.331 320.8C986.265 340 985.731 361.6 985.731 385.6C985.731 542.933 1033.46 621.6 1128.93 621.6C1223.86 621.6 1271.33 540.533 1271.33 378.4C1271.33 215.733 1223.86 134.4 1128.93 134.4ZM1728.66 471.2V512.8H1643.86V652H1597.46V512.8H1339.06V465.6L1601.46 92H1643.86V471.2H1728.66ZM1597.46 471.2V250.4C1597.46 214.667 1597.73 184 1598.26 158.4C1539.6 249.6 1466.8 353.867 1379.86 471.2H1597.46Z" fill="#1B1B1B"/>
<path d="M606.994 503.128V0" stroke="black" stroke-miterlimit="10"/>
<path d="M578.819 506.166L484.895 13.2461" stroke="black" stroke-miterlimit="10"/>
<path d="M553.133 514.736L370.659 51.3477" stroke="black" stroke-miterlimit="10"/>
<path d="M529.708 528.404L267.456 111.5" stroke="black" stroke-miterlimit="10"/>
<path d="M509.057 546.695L177.776 190.92" stroke="black" stroke-miterlimit="10"/>
<path d="M492.026 568.873L103.824 287.23" stroke="black" stroke-miterlimit="10"/>
<path d="M479.293 594.031L47.8076 398.066" stroke="black" stroke-miterlimit="10"/>
<path d="M471.316 621.621L12.332 520.752" stroke="black" stroke-miterlimit="10"/>
<path d="M468.49 651.881H0" stroke="black" stroke-miterlimit="10"/>
<path d="M745.512 651.881H1214" stroke="black" stroke-miterlimit="10"/>
<path d="M742.681 621.621L1201.66 520.752" stroke="black" stroke-miterlimit="10"/>
<path d="M734.7 594.031L1166.19 398.066" stroke="black" stroke-miterlimit="10"/>
<path d="M721.972 568.873L1110.17 287.23" stroke="black" stroke-miterlimit="10"/>
<path d="M704.941 546.695L1036.22 190.92" stroke="black" stroke-miterlimit="10"/>
<path d="M684.288 528.404L946.54 111.5" stroke="black" stroke-miterlimit="10"/>
<path d="M660.868 514.736L843.342 51.3477" stroke="black" stroke-miterlimit="10"/>
<path d="M635.178 506.166L729.102 13.2461" stroke="black" stroke-miterlimit="10"/>
</svg>
