<svg width="1639" height="31" viewBox="0 0 1639 31" fill="none" xmlns="http://www.w3.org/2000/svg">
<path d="M74.86 11.34C75.1827 11.34 75.454 11.45 75.674 11.67C75.894 11.89 76.004 12.1613 76.004 12.484C76.004 12.792 75.894 13.056 75.674 13.276C75.454 13.496 75.1827 13.606 74.86 13.606C74.5373 13.606 74.2587 13.496 74.024 13.276C73.804 13.056 73.694 12.792 73.694 12.484C73.694 12.1613 73.804 11.89 74.024 11.67C74.2587 11.45 74.5373 11.34 74.86 11.34ZM75.784 26.388H73.936L74.244 16.07H75.454L75.784 26.388ZM93.0928 7.6V23H91.4868V15.894H81.8508V23H80.2228V7.6H81.8508V14.464H91.4868V7.6H93.0928ZM104.851 23.132C103.326 23.132 101.94 22.7947 100.693 22.12C99.4613 21.4307 98.4933 20.492 97.7893 19.304C97.1 18.116 96.7553 16.7813 96.7553 15.3C96.7553 13.8187 97.1 12.484 97.7893 11.296C98.4933 10.108 99.4613 9.17667 100.693 8.502C101.94 7.81267 103.326 7.468 104.851 7.468C106.377 7.468 107.748 7.80533 108.965 8.48C110.197 9.15467 111.165 10.0933 111.869 11.296C112.573 12.484 112.925 13.8187 112.925 15.3C112.925 16.7813 112.573 18.1233 111.869 19.326C111.165 20.514 110.197 21.4453 108.965 22.12C107.748 22.7947 106.377 23.132 104.851 23.132ZM104.851 21.68C106.069 21.68 107.169 21.4087 108.151 20.866C109.134 20.3087 109.904 19.546 110.461 18.578C111.019 17.5953 111.297 16.5027 111.297 15.3C111.297 14.0973 111.019 13.012 110.461 12.044C109.904 11.0613 109.134 10.2987 108.151 9.756C107.169 9.19867 106.069 8.92 104.851 8.92C103.634 8.92 102.527 9.19867 101.529 9.756C100.547 10.2987 99.7693 11.0613 99.1973 12.044C98.64 13.012 98.3613 14.0973 98.3613 15.3C98.3613 16.5027 98.64 17.5953 99.1973 18.578C99.7693 19.546 100.547 20.3087 101.529 20.866C102.527 21.4087 103.634 21.68 104.851 21.68ZM116.574 7.6H118.202V21.592H126.826V23H116.574V7.6ZM139.23 18.886H130.65L128.802 23H127.108L134.148 7.6H135.754L142.794 23H141.078L139.23 18.886ZM138.636 17.566L134.94 9.294L131.244 17.566H138.636ZM144.77 7.6H146.618L146.288 18.38H145.078L144.77 7.6ZM145.694 23.11C145.371 23.11 145.093 23 144.858 22.78C144.638 22.5453 144.528 22.274 144.528 21.966C144.528 21.6433 144.638 21.3793 144.858 21.174C145.078 20.954 145.357 20.844 145.694 20.844C146.017 20.844 146.288 20.954 146.508 21.174C146.728 21.3793 146.838 21.6433 146.838 21.966C146.838 22.274 146.728 22.5453 146.508 22.78C146.288 23 146.017 23.11 145.694 23.11ZM167.705 21.592V23H156.815V7.6H167.375V9.008H158.443V14.486H166.407V15.872H158.443V21.592H167.705ZM175.777 23.132C174.633 23.132 173.533 22.9487 172.477 22.582C171.436 22.2153 170.629 21.7313 170.057 21.13L170.695 19.876C171.253 20.4333 171.993 20.888 172.917 21.24C173.841 21.5773 174.795 21.746 175.777 21.746C177.156 21.746 178.19 21.4967 178.879 20.998C179.569 20.4847 179.913 19.8247 179.913 19.018C179.913 18.402 179.723 17.9107 179.341 17.544C178.975 17.1773 178.52 16.8987 177.977 16.708C177.435 16.5027 176.679 16.2827 175.711 16.048C174.553 15.7547 173.629 15.476 172.939 15.212C172.25 14.9333 171.656 14.5153 171.157 13.958C170.673 13.4007 170.431 12.6453 170.431 11.692C170.431 10.9147 170.637 10.2107 171.047 9.58C171.458 8.93467 172.089 8.42133 172.939 8.04C173.79 7.65867 174.846 7.468 176.107 7.468C176.987 7.468 177.845 7.59267 178.681 7.842C179.532 8.07667 180.265 8.40667 180.881 8.832L180.331 10.13C179.686 9.70467 178.997 9.38933 178.263 9.184C177.53 8.964 176.811 8.854 176.107 8.854C174.758 8.854 173.739 9.118 173.049 9.646C172.375 10.1593 172.037 10.8267 172.037 11.648C172.037 12.264 172.221 12.7627 172.587 13.144C172.969 13.5107 173.438 13.7967 173.995 14.002C174.567 14.1927 175.33 14.4053 176.283 14.64C177.413 14.9187 178.322 15.1973 179.011 15.476C179.715 15.74 180.309 16.1507 180.793 16.708C181.277 17.2507 181.519 17.9913 181.519 18.93C181.519 19.7073 181.307 20.4187 180.881 21.064C180.471 21.6947 179.833 22.2007 178.967 22.582C178.102 22.9487 177.039 23.132 175.777 23.132ZM187.844 9.008H182.432V7.6H194.884V9.008H189.472V23H187.844V9.008ZM204.002 23.132C202.476 23.132 201.09 22.7947 199.844 22.12C198.612 21.4307 197.644 20.492 196.94 19.304C196.25 18.116 195.906 16.7813 195.906 15.3C195.906 13.8187 196.25 12.484 196.94 11.296C197.644 10.108 198.612 9.17667 199.844 8.502C201.09 7.81267 202.476 7.468 204.002 7.468C205.527 7.468 206.898 7.80533 208.116 8.48C209.348 9.15467 210.316 10.0933 211.02 11.296C211.724 12.484 212.076 13.8187 212.076 15.3C212.076 16.7813 211.724 18.1233 211.02 19.326C210.316 20.514 209.348 21.4453 208.116 22.12C206.898 22.7947 205.527 23.132 204.002 23.132ZM204.002 21.68C205.219 21.68 206.319 21.4087 207.302 20.866C208.284 20.3087 209.054 19.546 209.612 18.578C210.169 17.5953 210.448 16.5027 210.448 15.3C210.448 14.0973 210.169 13.012 209.612 12.044C209.054 11.0613 208.284 10.2987 207.302 9.756C206.319 9.19867 205.219 8.92 204.002 8.92C202.784 8.92 201.677 9.19867 200.68 9.756C199.697 10.2987 198.92 11.0613 198.348 12.044C197.79 13.012 197.512 14.0973 197.512 15.3C197.512 16.5027 197.79 17.5953 198.348 18.578C198.92 19.546 199.697 20.3087 200.68 20.866C201.677 21.4087 202.784 21.68 204.002 21.68ZM232.373 21.592V23H221.483V7.6H232.043V9.008H223.111V14.486H231.075V15.872H223.111V21.592H232.373ZM240.445 23.132C239.301 23.132 238.201 22.9487 237.145 22.582C236.104 22.2153 235.297 21.7313 234.725 21.13L235.363 19.876C235.921 20.4333 236.661 20.888 237.585 21.24C238.509 21.5773 239.463 21.746 240.445 21.746C241.824 21.746 242.858 21.4967 243.547 20.998C244.237 20.4847 244.581 19.8247 244.581 19.018C244.581 18.402 244.391 17.9107 244.009 17.544C243.643 17.1773 243.188 16.8987 242.645 16.708C242.103 16.5027 241.347 16.2827 240.379 16.048C239.221 15.7547 238.297 15.476 237.607 15.212C236.918 14.9333 236.324 14.5153 235.825 13.958C235.341 13.4007 235.099 12.6453 235.099 11.692C235.099 10.9147 235.305 10.2107 235.715 9.58C236.126 8.93467 236.757 8.42133 237.607 8.04C238.458 7.65867 239.514 7.468 240.775 7.468C241.655 7.468 242.513 7.59267 243.349 7.842C244.2 8.07667 244.933 8.40667 245.549 8.832L244.999 10.13C244.354 9.70467 243.665 9.38933 242.931 9.184C242.198 8.964 241.479 8.854 240.775 8.854C239.426 8.854 238.407 9.118 237.717 9.646C237.043 10.1593 236.705 10.8267 236.705 11.648C236.705 12.264 236.889 12.7627 237.255 13.144C237.637 13.5107 238.106 13.7967 238.663 14.002C239.235 14.1927 239.998 14.4053 240.951 14.64C242.081 14.9187 242.99 15.1973 243.679 15.476C244.383 15.74 244.977 16.1507 245.461 16.708C245.945 17.2507 246.187 17.9913 246.187 18.93C246.187 19.7073 245.975 20.4187 245.549 21.064C245.139 21.6947 244.501 22.2007 243.635 22.582C242.77 22.9487 241.707 23.132 240.445 23.132ZM265.15 18.886H256.57L254.722 23H253.028L260.068 7.6H261.674L268.714 23H266.998L265.15 18.886ZM264.556 17.566L260.86 9.294L257.164 17.566H264.556ZM283.271 7.6L276.451 23H274.845L268.025 7.6H269.785L275.681 20.976L281.621 7.6H283.271ZM294.691 18.886H286.111L284.263 23H282.569L289.609 7.6H291.215L298.255 23H296.539L294.691 18.886ZM294.097 17.566L290.401 9.294L286.705 17.566H294.097ZM306.561 7.6H312.831C314.459 7.6 315.896 7.93 317.143 8.59C318.389 9.23533 319.357 10.1447 320.047 11.318C320.736 12.4767 321.081 13.804 321.081 15.3C321.081 16.796 320.736 18.1307 320.047 19.304C319.357 20.4627 318.389 21.372 317.143 22.032C315.896 22.6773 314.459 23 312.831 23H306.561V7.6ZM312.743 21.592C314.092 21.592 315.273 21.328 316.285 20.8C317.297 20.2573 318.081 19.5167 318.639 18.578C319.196 17.6247 319.475 16.532 319.475 15.3C319.475 14.068 319.196 12.9827 318.639 12.044C318.081 11.0907 317.297 10.35 316.285 9.822C315.273 9.27933 314.092 9.008 312.743 9.008H308.189V21.592H312.743ZM324.737 7.6H326.365V23H324.737V7.6ZM342.221 15.3H343.783V21.174C343.065 21.8047 342.214 22.2887 341.231 22.626C340.249 22.9633 339.215 23.132 338.129 23.132C336.589 23.132 335.203 22.7947 333.971 22.12C332.739 21.4453 331.771 20.514 331.067 19.326C330.363 18.1233 330.011 16.7813 330.011 15.3C330.011 13.8187 330.363 12.484 331.067 11.296C331.771 10.0933 332.739 9.15467 333.971 8.48C335.203 7.80533 336.597 7.468 338.151 7.468C339.325 7.468 340.403 7.65867 341.385 8.04C342.368 8.40667 343.197 8.95667 343.871 9.69L342.859 10.724C341.642 9.52133 340.095 8.92 338.217 8.92C336.971 8.92 335.841 9.19867 334.829 9.756C333.832 10.2987 333.047 11.0613 332.475 12.044C331.903 13.012 331.617 14.0973 331.617 15.3C331.617 16.5027 331.903 17.588 332.475 18.556C333.047 19.524 333.832 20.2867 334.829 20.844C335.827 21.4013 336.949 21.68 338.195 21.68C339.779 21.68 341.121 21.284 342.221 20.492V15.3ZM348.391 7.6H350.019V23H348.391V7.6ZM358.021 9.008H352.609V7.6H365.061V9.008H359.649V23H358.021V9.008ZM376.547 18.886H367.967L366.119 23H364.425L371.465 7.6H373.071L380.111 23H378.395L376.547 18.886ZM375.953 17.566L372.257 9.294L368.561 17.566H375.953ZM382.658 7.6H384.286V21.592H392.91V23H382.658V7.6Z" fill="#F8F8F8"/>
<path d="M508.75 7.6L513.128 13.694L517.484 7.6H519.398L514.14 14.992L519.816 23H517.902L513.128 16.378L508.354 23H506.484L512.138 15.058L506.88 7.6H508.75ZM533.257 21.592V23H522.367V7.6H532.927V9.008H523.995V14.486H531.959V15.872H523.995V21.592H533.257ZM536.869 7.6H538.475V20.36L548.331 7.6H549.805V23H548.199V10.262L538.343 23H536.869V7.6ZM543.293 6.478C542.193 6.478 541.321 6.22867 540.675 5.73C540.045 5.23133 539.722 4.53467 539.707 3.64H540.917C540.932 4.22667 541.152 4.68867 541.577 5.026C542.003 5.36333 542.575 5.532 543.293 5.532C543.997 5.532 544.562 5.36333 544.987 5.026C545.427 4.68867 545.655 4.22667 545.669 3.64H546.879C546.865 4.53467 546.535 5.23133 545.889 5.73C545.244 6.22867 544.379 6.478 543.293 6.478ZM554.342 7.6H556.19L555.86 18.38H554.65L554.342 7.6ZM555.266 23.11C554.944 23.11 554.665 23 554.43 22.78C554.21 22.5453 554.1 22.274 554.1 21.966C554.1 21.6433 554.21 21.3793 554.43 21.174C554.65 20.954 554.929 20.844 555.266 20.844C555.589 20.844 555.86 20.954 556.08 21.174C556.3 21.3793 556.41 21.6433 556.41 21.966C556.41 22.274 556.3 22.5453 556.08 22.78C555.86 23 555.589 23.11 555.266 23.11ZM566.475 7.6H577.739V8.986H568.081V14.024H573.119C574.938 14.024 576.316 14.398 577.255 15.146C578.208 15.894 578.685 16.9793 578.685 18.402C578.685 19.8833 578.172 21.02 577.145 21.812C576.133 22.604 574.674 23 572.767 23H566.475V7.6ZM572.745 21.702C574.168 21.702 575.238 21.4307 575.957 20.888C576.69 20.3453 577.057 19.5387 577.057 18.468C577.057 17.412 576.698 16.6273 575.979 16.114C575.275 15.586 574.197 15.322 572.745 15.322H568.081V21.702H572.745ZM586.899 17.676V23H585.293V17.676L579.133 7.6H580.871L586.151 16.246L591.431 7.6H593.059L586.899 17.676ZM581.113 16.95H591.013V18.204H581.113V16.95ZM607.106 7.6V23H605.5V9.008H598.064L597.888 14.156C597.814 16.2827 597.638 17.9987 597.36 19.304C597.096 20.5947 596.685 21.5627 596.128 22.208C595.57 22.8387 594.83 23.154 593.906 23.154C593.51 23.154 593.099 23.1027 592.674 23L592.806 21.548C593.055 21.6067 593.297 21.636 593.532 21.636C594.177 21.636 594.698 21.3793 595.094 20.866C595.504 20.3527 595.812 19.5607 596.018 18.49C596.223 17.4047 596.362 15.9747 596.436 14.2L596.656 7.6H607.106ZM633.019 21.592V26.608H631.501V23H618.059V7.6H619.665V21.592H628.971V7.6H630.577V21.592H633.019ZM636.256 7.6H637.862V20.36L647.718 7.6H649.192V23H647.586V10.262L637.73 23H636.256V7.6ZM670.867 15.278C670.867 17.3167 670.141 18.9227 668.689 20.096C667.252 21.2547 665.235 21.8707 662.639 21.944V23.528H661.121V21.944C658.525 21.856 656.501 21.2327 655.049 20.074C653.612 18.9153 652.893 17.3167 652.893 15.278C652.893 13.2393 653.612 11.6407 655.049 10.482C656.501 9.32333 658.525 8.7 661.121 8.612V7.072H662.639V8.612C665.22 8.7 667.237 9.33067 668.689 10.504C670.141 11.6627 670.867 13.254 670.867 15.278ZM662.639 20.646C664.766 20.558 666.408 20.052 667.567 19.128C668.726 18.204 669.305 16.9207 669.305 15.278C669.305 13.6353 668.718 12.352 667.545 11.428C666.386 10.504 664.751 10.0053 662.639 9.932V20.646ZM654.455 15.278C654.455 16.9207 655.034 18.204 656.193 19.128C657.366 20.0373 659.009 20.5433 661.121 20.646V9.932C658.98 10.02 657.33 10.526 656.171 11.45C655.027 12.3593 654.455 13.6353 654.455 15.278ZM680.327 7.6C682.292 7.6 683.832 8.06933 684.947 9.008C686.061 9.94667 686.619 11.2373 686.619 12.88C686.619 14.5227 686.061 15.8133 684.947 16.752C683.832 17.676 682.292 18.138 680.327 18.138H676.191V23H674.563V7.6H680.327ZM680.283 16.708C681.808 16.708 682.974 16.378 683.781 15.718C684.587 15.0433 684.991 14.0973 684.991 12.88C684.991 11.6333 684.587 10.68 683.781 10.02C682.974 9.34533 681.808 9.008 680.283 9.008H676.191V16.708H680.283ZM701.487 7.6V23H699.881V9.008H692.445L692.269 14.156C692.195 16.2827 692.019 17.9987 691.741 19.304C691.477 20.5947 691.066 21.5627 690.509 22.208C689.951 22.8387 689.211 23.154 688.287 23.154C687.891 23.154 687.48 23.1027 687.055 23L687.187 21.548C687.436 21.6067 687.678 21.636 687.913 21.636C688.558 21.636 689.079 21.3793 689.475 20.866C689.885 20.3527 690.193 19.5607 690.399 18.49C690.604 17.4047 690.743 15.9747 690.817 14.2L691.037 7.6H701.487ZM713.128 13.1C714.947 13.1 716.333 13.5107 717.286 14.332C718.254 15.1533 718.738 16.356 718.738 17.94C718.738 19.5973 718.225 20.8587 717.198 21.724C716.186 22.5747 714.719 23 712.798 23H706.682V7.6H708.288V13.1H713.128ZM712.754 21.702C714.177 21.702 715.255 21.3867 715.988 20.756C716.736 20.1253 717.11 19.194 717.11 17.962C717.11 15.6007 715.658 14.42 712.754 14.42H708.288V21.702H712.754ZM721.4 7.6H723.006V23H721.4V7.6ZM733.292 15.938H729.772V23H728.188V7.6H729.772V14.508H733.292L738.506 7.6H740.266L734.546 15.08L740.596 23H738.726L733.292 15.938ZM741.74 21.592V26.454H740.222V23H738.726V21.592H741.74ZM760.259 18.886H751.679L749.831 23H748.137L755.177 7.6H756.783L763.823 23H762.107L760.259 18.886ZM759.665 17.566L755.969 9.294L752.273 17.566H759.665ZM775.904 15.058C776.974 15.278 777.788 15.7107 778.346 16.356C778.903 16.9867 779.182 17.8153 779.182 18.842C779.182 20.1767 778.705 21.2033 777.752 21.922C776.813 22.6407 775.427 23 773.594 23H766.774V7.6H773.176C774.818 7.6 776.102 7.93733 777.026 8.612C777.95 9.28667 778.412 10.262 778.412 11.538C778.412 12.4033 778.192 13.1367 777.752 13.738C777.312 14.3247 776.696 14.7647 775.904 15.058ZM768.38 14.574H773.088C774.276 14.574 775.185 14.332 775.816 13.848C776.461 13.364 776.784 12.66 776.784 11.736C776.784 10.812 776.461 10.108 775.816 9.624C775.185 9.14 774.276 8.898 773.088 8.898H768.38V14.574ZM773.594 21.702C776.248 21.702 777.576 20.712 777.576 18.732C777.576 16.796 776.248 15.828 773.594 15.828H768.38V21.702H773.594ZM793.108 18.886H784.528L782.68 23H780.986L788.026 7.6H789.632L796.672 23H794.956L793.108 18.886ZM792.514 17.566L788.818 9.294L785.122 17.566H792.514Z" fill="#F8F8F8"/>
<path d="M925.378 7.6V23H923.772V15.894H914.136V23H912.508V7.6H914.136V14.464H923.772V7.6H925.378ZM940.062 18.886H931.482L929.634 23H927.94L934.98 7.6H936.586L943.626 23H941.91L940.062 18.886ZM939.468 17.566L935.772 9.294L932.076 17.566H939.468ZM946.174 7.6H947.802V21.592H956.426V23H946.174V7.6ZM959.129 7.6H960.757V21.592H969.381V23H959.129V7.6ZM978.515 23.132C976.99 23.132 975.604 22.7947 974.357 22.12C973.125 21.4307 972.157 20.492 971.453 19.304C970.764 18.116 970.419 16.7813 970.419 15.3C970.419 13.8187 970.764 12.484 971.453 11.296C972.157 10.108 973.125 9.17667 974.357 8.502C975.604 7.81267 976.99 7.468 978.515 7.468C980.041 7.468 981.412 7.80533 982.629 8.48C983.861 9.15467 984.829 10.0933 985.533 11.296C986.237 12.484 986.589 13.8187 986.589 15.3C986.589 16.7813 986.237 18.1233 985.533 19.326C984.829 20.514 983.861 21.4453 982.629 22.12C981.412 22.7947 980.041 23.132 978.515 23.132ZM978.515 21.68C979.733 21.68 980.833 21.4087 981.815 20.866C982.798 20.3087 983.568 19.546 984.125 18.578C984.683 17.5953 984.961 16.5027 984.961 15.3C984.961 14.0973 984.683 13.012 984.125 12.044C983.568 11.0613 982.798 10.2987 981.815 9.756C980.833 9.19867 979.733 8.92 978.515 8.92C977.298 8.92 976.191 9.19867 975.193 9.756C974.211 10.2987 973.433 11.0613 972.861 12.044C972.304 13.012 972.025 14.0973 972.025 15.3C972.025 16.5027 972.304 17.5953 972.861 18.578C973.433 19.546 974.211 20.3087 975.193 20.866C976.191 21.4087 977.298 21.68 978.515 21.68ZM989.666 7.6H991.514L991.184 18.38H989.974L989.666 7.6ZM990.59 23.11C990.268 23.11 989.989 23 989.754 22.78C989.534 22.5453 989.424 22.274 989.424 21.966C989.424 21.6433 989.534 21.3793 989.754 21.174C989.974 20.954 990.253 20.844 990.59 20.844C990.913 20.844 991.184 20.954 991.404 21.174C991.624 21.3793 991.734 21.6433 991.734 21.966C991.734 22.274 991.624 22.5453 991.404 22.78C991.184 23 990.913 23.11 990.59 23.11ZM1001.71 7.6H1007.98C1009.61 7.6 1011.05 7.93 1012.29 8.59C1013.54 9.23533 1014.51 10.1447 1015.2 11.318C1015.89 12.4767 1016.23 13.804 1016.23 15.3C1016.23 16.796 1015.89 18.1307 1015.2 19.304C1014.51 20.4627 1013.54 21.372 1012.29 22.032C1011.05 22.6773 1009.61 23 1007.98 23H1001.71V7.6ZM1007.89 21.592C1009.24 21.592 1010.42 21.328 1011.44 20.8C1012.45 20.2573 1013.23 19.5167 1013.79 18.578C1014.35 17.6247 1014.63 16.532 1014.63 15.3C1014.63 14.068 1014.35 12.9827 1013.79 12.044C1013.23 11.0907 1012.45 10.35 1011.44 9.822C1010.42 9.27933 1009.24 9.008 1007.89 9.008H1003.34V21.592H1007.89ZM1019.89 7.6H1021.51V23H1019.89V7.6ZM1037.42 21.592V23H1026.53V7.6H1037.09V9.008H1028.15V14.486H1036.12V15.872H1028.15V21.592H1037.42ZM1045.49 23.132C1044.34 23.132 1043.24 22.9487 1042.19 22.582C1041.15 22.2153 1040.34 21.7313 1039.77 21.13L1040.41 19.876C1040.96 20.4333 1041.7 20.888 1042.63 21.24C1043.55 21.5773 1044.51 21.746 1045.49 21.746C1046.87 21.746 1047.9 21.4967 1048.59 20.998C1049.28 20.4847 1049.62 19.8247 1049.62 19.018C1049.62 18.402 1049.43 17.9107 1049.05 17.544C1048.69 17.1773 1048.23 16.8987 1047.69 16.708C1047.15 16.5027 1046.39 16.2827 1045.42 16.048C1044.26 15.7547 1043.34 15.476 1042.65 15.212C1041.96 14.9333 1041.37 14.5153 1040.87 13.958C1040.38 13.4007 1040.14 12.6453 1040.14 11.692C1040.14 10.9147 1040.35 10.2107 1040.76 9.58C1041.17 8.93467 1041.8 8.42133 1042.65 8.04C1043.5 7.65867 1044.56 7.468 1045.82 7.468C1046.7 7.468 1047.56 7.59267 1048.39 7.842C1049.24 8.07667 1049.98 8.40667 1050.59 8.832L1050.04 10.13C1049.4 9.70467 1048.71 9.38933 1047.97 9.184C1047.24 8.964 1046.52 8.854 1045.82 8.854C1044.47 8.854 1043.45 9.118 1042.76 9.646C1042.09 10.1593 1041.75 10.8267 1041.75 11.648C1041.75 12.264 1041.93 12.7627 1042.3 13.144C1042.68 13.5107 1043.15 13.7967 1043.71 14.002C1044.28 14.1927 1045.04 14.4053 1045.99 14.64C1047.12 14.9187 1048.03 15.1973 1048.72 15.476C1049.43 15.74 1050.02 16.1507 1050.5 16.708C1050.99 17.2507 1051.23 17.9913 1051.23 18.93C1051.23 19.7073 1051.02 20.4187 1050.59 21.064C1050.18 21.6947 1049.54 22.2007 1048.68 22.582C1047.81 22.9487 1046.75 23.132 1045.49 23.132ZM1060.54 7.6H1062.16V23H1060.54V7.6ZM1071.42 23.132C1070.28 23.132 1069.18 22.9487 1068.12 22.582C1067.08 22.2153 1066.27 21.7313 1065.7 21.13L1066.34 19.876C1066.9 20.4333 1067.64 20.888 1068.56 21.24C1069.48 21.5773 1070.44 21.746 1071.42 21.746C1072.8 21.746 1073.83 21.4967 1074.52 20.998C1075.21 20.4847 1075.56 19.8247 1075.56 19.018C1075.56 18.402 1075.37 17.9107 1074.98 17.544C1074.62 17.1773 1074.16 16.8987 1073.62 16.708C1073.08 16.5027 1072.32 16.2827 1071.35 16.048C1070.2 15.7547 1069.27 15.476 1068.58 15.212C1067.89 14.9333 1067.3 14.5153 1066.8 13.958C1066.32 13.4007 1066.07 12.6453 1066.07 11.692C1066.07 10.9147 1066.28 10.2107 1066.69 9.58C1067.1 8.93467 1067.73 8.42133 1068.58 8.04C1069.43 7.65867 1070.49 7.468 1071.75 7.468C1072.63 7.468 1073.49 7.59267 1074.32 7.842C1075.17 8.07667 1075.91 8.40667 1076.52 8.832L1075.97 10.13C1075.33 9.70467 1074.64 9.38933 1073.91 9.184C1073.17 8.964 1072.45 8.854 1071.75 8.854C1070.4 8.854 1069.38 9.118 1068.69 9.646C1068.02 10.1593 1067.68 10.8267 1067.68 11.648C1067.68 12.264 1067.86 12.7627 1068.23 13.144C1068.61 13.5107 1069.08 13.7967 1069.64 14.002C1070.21 14.1927 1070.97 14.4053 1071.93 14.64C1073.06 14.9187 1073.96 15.1973 1074.65 15.476C1075.36 15.74 1075.95 16.1507 1076.44 16.708C1076.92 17.2507 1077.16 17.9913 1077.16 18.93C1077.16 19.7073 1076.95 20.4187 1076.52 21.064C1076.11 21.6947 1075.48 22.2007 1074.61 22.582C1073.74 22.9487 1072.68 23.132 1071.42 23.132ZM1083.49 9.008H1078.07V7.6H1090.53V9.008H1085.11V23H1083.49V9.008ZM1108.54 18.886H1099.96L1098.11 23H1096.42L1103.46 7.6H1105.07L1112.11 23H1110.39L1108.54 18.886ZM1107.95 17.566L1104.25 9.294L1100.56 17.566H1107.95ZM1126.66 7.6L1119.84 23H1118.24L1111.42 7.6H1113.18L1119.07 20.976L1125.01 7.6H1126.66ZM1138.08 18.886H1129.5L1127.66 23H1125.96L1133 7.6H1134.61L1141.65 23H1139.93L1138.08 18.886ZM1137.49 17.566L1133.79 9.294L1130.1 17.566H1137.49ZM1149.95 7.6H1156.22C1157.85 7.6 1159.29 7.93 1160.54 8.59C1161.78 9.23533 1162.75 10.1447 1163.44 11.318C1164.13 12.4767 1164.47 13.804 1164.47 15.3C1164.47 16.796 1164.13 18.1307 1163.44 19.304C1162.75 20.4627 1161.78 21.372 1160.54 22.032C1159.29 22.6773 1157.85 23 1156.22 23H1149.95V7.6ZM1156.14 21.592C1157.48 21.592 1158.67 21.328 1159.68 20.8C1160.69 20.2573 1161.47 19.5167 1162.03 18.578C1162.59 17.6247 1162.87 16.532 1162.87 15.3C1162.87 14.068 1162.59 12.9827 1162.03 12.044C1161.47 11.0907 1160.69 10.35 1159.68 9.822C1158.67 9.27933 1157.48 9.008 1156.14 9.008H1151.58V21.592H1156.14ZM1168.13 7.6H1169.76V23H1168.13V7.6ZM1185.61 15.3H1187.18V21.174C1186.46 21.8047 1185.61 22.2887 1184.62 22.626C1183.64 22.9633 1182.61 23.132 1181.52 23.132C1179.98 23.132 1178.6 22.7947 1177.36 22.12C1176.13 21.4453 1175.16 20.514 1174.46 19.326C1173.76 18.1233 1173.4 16.7813 1173.4 15.3C1173.4 13.8187 1173.76 12.484 1174.46 11.296C1175.16 10.0933 1176.13 9.15467 1177.36 8.48C1178.6 7.80533 1179.99 7.468 1181.54 7.468C1182.72 7.468 1183.8 7.65867 1184.78 8.04C1185.76 8.40667 1186.59 8.95667 1187.26 9.69L1186.25 10.724C1185.03 9.52133 1183.49 8.92 1181.61 8.92C1180.36 8.92 1179.23 9.19867 1178.22 9.756C1177.22 10.2987 1176.44 11.0613 1175.87 12.044C1175.3 13.012 1175.01 14.0973 1175.01 15.3C1175.01 16.5027 1175.3 17.588 1175.87 18.556C1176.44 19.524 1177.22 20.2867 1178.22 20.844C1179.22 21.4013 1180.34 21.68 1181.59 21.68C1183.17 21.68 1184.51 21.284 1185.61 20.492V15.3ZM1191.78 7.6H1193.41V23H1191.78V7.6ZM1201.41 9.008H1196V7.6H1208.45V9.008H1203.04V23H1201.41V9.008ZM1219.94 18.886H1211.36L1209.51 23H1207.82L1214.86 7.6H1216.46L1223.5 23H1221.79L1219.94 18.886ZM1219.35 17.566L1215.65 9.294L1211.95 17.566H1219.35ZM1226.05 7.6H1227.68V21.592H1236.3V23H1226.05V7.6Z" fill="#F8F8F8"/>
<path d="M1364.38 7.6V23H1362.77V15.894H1353.14V23H1351.51V7.6H1353.14V14.464H1362.77V7.6H1364.38ZM1380.29 21.592V23H1369.4V7.6H1379.96V9.008H1371.03V14.486H1379V15.872H1371.03V21.592H1380.29ZM1385.77 23.132C1384.89 23.132 1384.08 22.9413 1383.33 22.56C1382.58 22.1787 1381.97 21.636 1381.5 20.932L1382.47 19.832C1383.32 21.0933 1384.43 21.724 1385.79 21.724C1387.7 21.724 1388.65 20.5947 1388.65 18.336V9.008H1383.02V7.6H1390.26V18.27C1390.26 19.8833 1389.88 21.1007 1389.12 21.922C1388.37 22.7287 1387.25 23.132 1385.77 23.132ZM1394.57 7.6H1396.42L1396.09 18.38H1394.88L1394.57 7.6ZM1395.49 23.11C1395.17 23.11 1394.89 23 1394.66 22.78C1394.44 22.5453 1394.33 22.274 1394.33 21.966C1394.33 21.6433 1394.44 21.3793 1394.66 21.174C1394.88 20.954 1395.16 20.844 1395.49 20.844C1395.82 20.844 1396.09 20.954 1396.31 21.174C1396.53 21.3793 1396.64 21.6433 1396.64 21.966C1396.64 22.274 1396.53 22.5453 1396.31 22.78C1396.09 23 1395.82 23.11 1395.49 23.11ZM1409.61 9.008H1404.2V7.6H1416.65V9.008H1411.24V23H1409.61V9.008ZM1425.77 23.132C1424.24 23.132 1422.85 22.7947 1421.61 22.12C1420.38 21.4307 1419.41 20.492 1418.7 19.304C1418.01 18.116 1417.67 16.7813 1417.67 15.3C1417.67 13.8187 1418.01 12.484 1418.7 11.296C1419.41 10.108 1420.38 9.17667 1421.61 8.502C1422.85 7.81267 1424.24 7.468 1425.77 7.468C1427.29 7.468 1428.66 7.80533 1429.88 8.48C1431.11 9.15467 1432.08 10.0933 1432.78 11.296C1433.49 12.484 1433.84 13.8187 1433.84 15.3C1433.84 16.7813 1433.49 18.1233 1432.78 19.326C1432.08 20.514 1431.11 21.4453 1429.88 22.12C1428.66 22.7947 1427.29 23.132 1425.77 23.132ZM1425.77 21.68C1426.98 21.68 1428.08 21.4087 1429.07 20.866C1430.05 20.3087 1430.82 19.546 1431.38 18.578C1431.93 17.5953 1432.21 16.5027 1432.21 15.3C1432.21 14.0973 1431.93 13.012 1431.38 12.044C1430.82 11.0613 1430.05 10.2987 1429.07 9.756C1428.08 9.19867 1426.98 8.92 1425.77 8.92C1424.55 8.92 1423.44 9.19867 1422.44 9.756C1421.46 10.2987 1420.68 11.0613 1420.11 12.044C1419.55 13.012 1419.28 14.0973 1419.28 15.3C1419.28 16.5027 1419.55 17.5953 1420.11 18.578C1420.68 19.546 1421.46 20.3087 1422.44 20.866C1423.44 21.4087 1424.55 21.68 1425.77 21.68ZM1444.9 23.132C1444.02 23.132 1443.2 22.9413 1442.45 22.56C1441.71 22.1787 1441.1 21.636 1440.63 20.932L1441.6 19.832C1442.45 21.0933 1443.55 21.724 1444.92 21.724C1446.82 21.724 1447.78 20.5947 1447.78 18.336V9.008H1442.15V7.6H1449.38V18.27C1449.38 19.8833 1449 21.1007 1448.24 21.922C1447.49 22.7287 1446.38 23.132 1444.9 23.132ZM1465.16 21.592V23H1454.27V7.6H1464.83V9.008H1455.9V14.486H1463.86V15.872H1455.9V21.592H1465.16ZM1473.23 23.132C1472.09 23.132 1470.99 22.9487 1469.93 22.582C1468.89 22.2153 1468.08 21.7313 1467.51 21.13L1468.15 19.876C1468.71 20.4333 1469.45 20.888 1470.37 21.24C1471.29 21.5773 1472.25 21.746 1473.23 21.746C1474.61 21.746 1475.64 21.4967 1476.33 20.998C1477.02 20.4847 1477.37 19.8247 1477.37 19.018C1477.37 18.402 1477.18 17.9107 1476.79 17.544C1476.43 17.1773 1475.97 16.8987 1475.43 16.708C1474.89 16.5027 1474.13 16.2827 1473.16 16.048C1472.01 15.7547 1471.08 15.476 1470.39 15.212C1469.7 14.9333 1469.11 14.5153 1468.61 13.958C1468.13 13.4007 1467.88 12.6453 1467.88 11.692C1467.88 10.9147 1468.09 10.2107 1468.5 9.58C1468.91 8.93467 1469.54 8.42133 1470.39 8.04C1471.24 7.65867 1472.3 7.468 1473.56 7.468C1474.44 7.468 1475.3 7.59267 1476.13 7.842C1476.99 8.07667 1477.72 8.40667 1478.33 8.832L1477.78 10.13C1477.14 9.70467 1476.45 9.38933 1475.72 9.184C1474.98 8.964 1474.26 8.854 1473.56 8.854C1472.21 8.854 1471.19 9.118 1470.5 9.646C1469.83 10.1593 1469.49 10.8267 1469.49 11.648C1469.49 12.264 1469.67 12.7627 1470.04 13.144C1470.42 13.5107 1470.89 13.7967 1471.45 14.002C1472.02 14.1927 1472.78 14.4053 1473.74 14.64C1474.87 14.9187 1475.78 15.1973 1476.46 15.476C1477.17 15.74 1477.76 16.1507 1478.25 16.708C1478.73 17.2507 1478.97 17.9913 1478.97 18.93C1478.97 19.7073 1478.76 20.4187 1478.33 21.064C1477.92 21.6947 1477.29 22.2007 1476.42 22.582C1475.56 22.9487 1474.49 23.132 1473.23 23.132ZM1485.3 9.008H1479.88V7.6H1492.34V9.008H1486.92V23H1485.3V9.008ZM1510.35 18.886H1501.77L1499.93 23H1498.23L1505.27 7.6H1506.88L1513.92 23H1512.2L1510.35 18.886ZM1509.76 17.566L1506.06 9.294L1502.37 17.566H1509.76ZM1528.47 7.6L1521.65 23H1520.05L1513.23 7.6H1514.99L1520.88 20.976L1526.82 7.6H1528.47ZM1539.89 18.886H1531.31L1529.47 23H1527.77L1534.81 7.6H1536.42L1543.46 23H1541.74L1539.89 18.886ZM1539.3 17.566L1535.6 9.294L1531.91 17.566H1539.3ZM1551.76 7.6H1558.03C1559.66 7.6 1561.1 7.93 1562.35 8.59C1563.59 9.23533 1564.56 10.1447 1565.25 11.318C1565.94 12.4767 1566.28 13.804 1566.28 15.3C1566.28 16.796 1565.94 18.1307 1565.25 19.304C1564.56 20.4627 1563.59 21.372 1562.35 22.032C1561.1 22.6773 1559.66 23 1558.03 23H1551.76V7.6ZM1557.95 21.592C1559.3 21.592 1560.48 21.328 1561.49 20.8C1562.5 20.2573 1563.28 19.5167 1563.84 18.578C1564.4 17.6247 1564.68 16.532 1564.68 15.3C1564.68 14.068 1564.4 12.9827 1563.84 12.044C1563.28 11.0907 1562.5 10.35 1561.49 9.822C1560.48 9.27933 1559.3 9.008 1557.95 9.008H1553.39V21.592H1557.95ZM1569.94 7.6H1571.57V23H1569.94V7.6ZM1587.42 15.3H1588.99V21.174C1588.27 21.8047 1587.42 22.2887 1586.43 22.626C1585.45 22.9633 1584.42 23.132 1583.33 23.132C1581.79 23.132 1580.41 22.7947 1579.17 22.12C1577.94 21.4453 1576.97 20.514 1576.27 19.326C1575.57 18.1233 1575.21 16.7813 1575.21 15.3C1575.21 13.8187 1575.57 12.484 1576.27 11.296C1576.97 10.0933 1577.94 9.15467 1579.17 8.48C1580.41 7.80533 1581.8 7.468 1583.35 7.468C1584.53 7.468 1585.61 7.65867 1586.59 8.04C1587.57 8.40667 1588.4 8.95667 1589.07 9.69L1588.06 10.724C1586.84 9.52133 1585.3 8.92 1583.42 8.92C1582.17 8.92 1581.04 9.19867 1580.03 9.756C1579.03 10.2987 1578.25 11.0613 1577.68 12.044C1577.11 13.012 1576.82 14.0973 1576.82 15.3C1576.82 16.5027 1577.11 17.588 1577.68 18.556C1578.25 19.524 1579.03 20.2867 1580.03 20.844C1581.03 21.4013 1582.15 21.68 1583.4 21.68C1584.98 21.68 1586.32 21.284 1587.42 20.492V15.3ZM1593.59 7.6H1595.22V23H1593.59V7.6ZM1603.22 9.008H1597.81V7.6H1610.26V9.008H1604.85V23H1603.22V9.008ZM1621.75 18.886H1613.17L1611.32 23H1609.63L1616.67 7.6H1618.27L1625.31 23H1623.6L1621.75 18.886ZM1621.16 17.566L1617.46 9.294L1613.76 17.566H1621.16ZM1627.86 7.6H1629.49V21.592H1638.11V23H1627.86V7.6Z" fill="#F8F8F8"/>
<path d="M32 14.3249L19.285 13.8995L23.6105 9.28189L22.254 7.98481L17.4055 12.1096L16.9588 0H15.0412L14.5945 12.1096L9.746 7.98481L8.38953 9.28189L12.715 13.8995L0 14.3249V16.1512L12.715 16.5767L8.38953 21.1943L9.746 22.4862L14.5945 18.3667L15.0412 30.4762H16.9588L17.4055 18.3667L22.254 22.4862L23.6105 21.1943L19.285 16.5767L32 16.1512V14.3249Z" fill="#F8F8F8"/>
<path d="M466 14.3249L453.285 13.8995L457.61 9.28189L456.254 7.98481L451.406 12.1096L450.959 0H449.041L448.594 12.1096L443.746 7.98481L442.39 9.28189L446.715 13.8995L434 14.3249V16.1512L446.715 16.5767L442.39 21.1943L443.746 22.4862L448.594 18.3667L449.041 30.4762H450.959L451.406 18.3667L456.254 22.4862L457.61 21.1943L453.285 16.5767L466 16.1512V14.3249Z" fill="#F8F8F8"/>
<path d="M870 14.3249L857.285 13.8995L861.61 9.28189L860.254 7.98481L855.406 12.1096L854.959 0H853.041L852.594 12.1096L847.746 7.98481L846.39 9.28189L850.715 13.8995L838 14.3249V16.1512L850.715 16.5767L846.39 21.1943L847.746 22.4862L852.594 18.3667L853.041 30.4762H854.959L855.406 18.3667L860.254 22.4862L861.61 21.1943L857.285 16.5767L870 16.1512V14.3249Z" fill="#F8F8F8"/>
<path d="M1309 14.3249L1296.28 13.8995L1300.61 9.28189L1299.25 7.98481L1294.41 12.1096L1293.96 0H1292.04L1291.59 12.1096L1286.75 7.98481L1285.39 9.28189L1289.72 13.8995L1277 14.3249V16.1512L1289.72 16.5767L1285.39 21.1943L1286.75 22.4862L1291.59 18.3667L1292.04 30.4762H1293.96L1294.41 18.3667L1299.25 22.4862L1300.61 21.1943L1296.28 16.5767L1309 16.1512V14.3249Z" fill="#F8F8F8"/>
</svg>
